<svg width="253" height="65" viewBox="0 0 253 65" fill="none" xmlns="http://www.w3.org/2000/svg">
<g clip-path="url(#clip0_2_8)">
<path d="M112.14 32.13C112.2 31.95 112.24 31.75 112.31 31.57C112.81 30.34 113.31 29.12 113.81 27.89C114.31 26.66 114.81 25.3 115.37 24L116.94 20.07C117.47 18.74 117.94 17.4 118.51 16.07C119.08 14.74 119.58 13.52 120.09 12.25C120.6 10.98 121.09 9.72002 121.6 8.45002L123.13 4.62002C123.52 3.62002 123.93 2.69002 124.27 1.71002C124.61 0.73002 124.75 0.710019 125.68 0.710019C126.38 0.710019 127.08 0.710019 127.77 0.710019C128.019 0.676694 128.272 0.738456 128.477 0.883004C128.683 1.02755 128.827 1.24428 128.88 1.49002C129.88 3.97002 130.76 6.49002 131.72 8.93002C132.46 10.86 133.21 12.78 133.97 14.71C134.73 16.64 135.65 18.86 136.46 20.95C137.27 23.04 138.05 25.18 138.86 27.29C139.52 29 140.22 30.7 140.86 32.41C141.08 32.96 141.28 33.53 141.49 34.09C141.7 34.65 141.49 34.72 141.05 34.73C140.197 34.78 139.343 34.78 138.49 34.73C138.327 34.6826 138.175 34.5998 138.048 34.4875C137.92 34.3751 137.818 34.236 137.75 34.08C136.84 31.68 136 29.32 135 27C134.7 26.24 134.36 25.49 134.14 24.72C134 24.23 133.7 24.24 133.34 24.24H125.34C123.34 24.24 121.34 24.24 119.34 24.24C119.177 24.2138 119.01 24.2526 118.876 24.3479C118.741 24.4433 118.649 24.5877 118.62 24.75C118.13 26.15 117.56 27.53 117.04 28.92C116.52 30.31 116.04 31.7 115.5 33.1C115.35 33.49 115.19 33.89 115.03 34.28C114.87 34.67 114.42 34.72 114.03 34.72H109.72H90.78C89.7 34.72 89.65 34.65 89.66 33.57C89.66 31.95 89.66 30.33 89.66 28.71C89.66 19.88 89.66 11.05 89.66 2.23002C89.66 0.34002 89.86 0.70002 91.24 0.67002C91.65 0.67002 92.06 0.67002 92.47 0.67002C92.88 0.67002 93.12 0.91002 93.14 1.33002C93.16 1.75002 93.14 1.90002 93.14 2.18002C93.14 11.6734 93.14 21.16 93.14 30.64C93.14 31.75 93.14 31.64 94.14 31.64C99.74 31.64 105.34 31.64 110.94 31.64C111.309 31.6839 111.671 31.7711 112.02 31.9L112.14 32.13ZM132.32 21.13C132.7 21.2 132.79 21 132.67 20.68C132.49 20.2 132.28 19.68 132.1 19.25C131.7 18.25 131.31 17.17 130.92 16.13L129.39 12.06L128.25 9.06002C127.75 7.72002 127.25 6.38002 126.75 5.06002C126.75 4.94002 126.57 4.87002 126.48 4.77002C126.388 4.87083 126.308 4.98151 126.24 5.10002C126.03 5.64002 125.84 6.19002 125.63 6.73002C125.12 8.04002 124.63 9.35002 124.09 10.67C123.7 11.67 123.32 12.67 122.94 13.67L121.4 17.61C121.03 18.55 120.65 19.49 120.3 20.43C120.227 20.6549 120.173 20.8858 120.14 21.12L120.72 21.19H132.32V21.13Z" fill="white"/>
<path d="M212.91 28.7C212.946 28.5388 212.97 28.3749 212.98 28.21C212.98 19.33 212.98 10.45 212.98 1.57001C212.98 0.630007 213.04 0.570007 213.98 0.570007H215.69C216.29 0.570007 216.5 0.760007 216.52 1.36001C216.52 1.64001 216.52 1.93001 216.52 2.21001C216.52 12.6967 216.52 23.1833 216.52 33.67C216.52 34.55 216.46 34.61 215.58 34.61C214.7 34.61 214.05 34.61 213.28 34.61C213.113 34.6245 212.945 34.5908 212.796 34.5128C212.647 34.4349 212.523 34.3159 212.44 34.17C211.453 32.7233 210.453 31.28 209.44 29.84C207.97 27.71 206.44 25.59 205.02 23.45C203.39 21.08 201.76 18.69 200.12 16.32L195.25 9.20001L193.66 6.87001C193.576 6.78043 193.486 6.69688 193.39 6.62001C193.35 6.78774 193.324 6.95823 193.31 7.13001C193.31 8.25001 193.39 9.37001 193.39 10.49C193.39 18.2833 193.39 26.0767 193.39 33.87C193.39 34.46 193.23 34.63 192.64 34.64C191.89 34.64 191.14 34.64 190.39 34.64C190.315 34.6531 190.239 34.6498 190.166 34.6302C190.093 34.6107 190.025 34.5754 189.966 34.5268C189.908 34.4782 189.862 34.4175 189.829 34.349C189.797 34.2805 189.78 34.2057 189.78 34.13C189.765 33.8636 189.765 33.5965 189.78 33.33V2.00001C189.78 1.70001 189.78 1.40001 189.78 1.10001C189.78 0.800007 190.05 0.610007 190.4 0.620007C191.24 0.620007 192.07 0.620007 192.91 0.620007C193.12 0.626569 193.325 0.690635 193.501 0.805237C193.677 0.919839 193.819 1.08059 193.91 1.27001C194.91 2.75001 195.97 4.27001 196.99 5.73001L201.62 12.48C203.34 14.99 205.09 17.48 206.81 20.01L212.5 28.36C212.65 28.43 212.76 28.52 212.91 28.7Z" fill="white"/>
<path d="M170.42 29.17C170.02 29.73 169.65 30.31 169.23 30.84C168.068 32.2587 166.593 33.3883 164.92 34.14C162.983 34.9698 160.9 35.4043 158.793 35.4181C156.686 35.4318 154.597 35.0245 152.65 34.22C150.579 33.372 148.737 32.0499 147.27 30.36C145.966 28.8772 144.948 27.1648 144.27 25.31C143.644 23.7475 143.24 22.1048 143.07 20.43C142.771 18.0616 142.859 15.6603 143.33 13.32C143.581 12.0954 143.915 10.8893 144.33 9.71003C145.34 7.0548 147.072 4.73438 149.33 3.01003C150.422 2.1984 151.611 1.52652 152.87 1.01003C153.45 0.770027 154.09 0.670027 154.69 0.460027C157.12 -0.379973 159.62 0.240027 162.08 0.0900267C162.574 0.142708 163.054 0.281473 163.5 0.500027C165.408 1.05624 167.182 1.99912 168.71 3.27003C170.466 4.8365 171.78 6.83651 172.52 9.07003C172.72 9.61003 172.86 10.18 173.01 10.75C173.043 10.8254 173.055 10.9083 173.046 10.9901C173.036 11.0718 173.004 11.1495 172.954 11.2149C172.904 11.2802 172.837 11.331 172.761 11.3618C172.685 11.3926 172.601 11.4024 172.52 11.39C171.72 11.39 170.92 11.39 170.12 11.39C169.947 11.3982 169.777 11.3377 169.648 11.2217C169.519 11.1056 169.44 10.9434 169.43 10.77C169.134 9.30973 168.484 7.94441 167.537 6.79374C166.59 5.64307 165.376 4.74218 164 4.17003C161.662 3.00325 159.001 2.65127 156.44 3.17003C154.222 3.56294 152.172 4.60731 150.55 6.17003C149.469 7.17613 148.614 8.39962 148.04 9.76003C147.534 10.9059 147.129 12.0938 146.83 13.31C146.237 15.8481 146.193 18.4835 146.7 21.04C146.935 22.3239 147.27 23.5877 147.7 24.82C148.525 27.0869 150.044 29.0359 152.04 30.39C154.36 31.9173 157.136 32.5988 159.9 32.32C161.139 32.2383 162.359 31.972 163.52 31.53C165.869 30.6523 167.793 28.9101 168.9 26.66C169.779 24.7975 170.275 22.7777 170.36 20.72C170.36 20.41 170.26 20.29 169.98 20.28H159.8C159.03 20.28 158.95 20.19 158.95 19.42V17.87C158.95 17.39 159.21 17.19 159.65 17.19H172.65C173.34 17.19 173.46 17.33 173.46 18.01C173.46 23.29 173.46 28.5667 173.46 33.84C173.46 34.53 173.37 34.62 172.69 34.62H171.69C171.02 34.62 170.84 34.48 170.8 33.8C170.71 32.39 170.64 30.99 170.56 29.58C170.57 29.4469 170.57 29.3132 170.56 29.18L170.42 29.17Z" fill="white"/>
<path d="M49.76 18.24C50.03 18.35 50.26 18.46 50.5 18.55C51.5693 18.873 52.5195 19.5047 53.2311 20.3658C53.9427 21.2268 54.3842 22.2789 54.5 23.39C54.79 25.39 54.81 27.39 54.96 29.34C55.0121 30.9748 55.3894 32.5827 56.07 34.07C56.3 34.52 56.14 34.74 55.65 34.74H53.35C52.66 34.74 52.24 34.28 52.06 33.46C51.7094 31.7331 51.5617 29.9712 51.62 28.21C51.6521 26.4098 51.3116 24.6224 50.62 22.96C50.3014 22.0798 49.7241 21.3165 48.9638 20.7703C48.2035 20.2242 47.2959 19.9208 46.36 19.9C42.07 19.76 37.77 19.84 33.47 19.82C33.19 19.82 33 19.89 33 20.24C33 21.83 33.05 23.41 33.05 25C33.05 28 33.05 30.92 33.05 33.88C33.05 34.65 32.92 34.78 32.16 34.77C31.4 34.76 30.95 34.77 30.34 34.77C29.73 34.77 29.62 34.57 29.62 33.96C29.62 32.58 29.62 31.21 29.62 29.84C29.62 26.08 29.62 22.32 29.62 18.55C29.62 12.89 29.57 7.22001 29.54 1.55001C29.54 0.910012 29.73 0.710012 30.29 0.700012H39.29C41.61 0.700012 43.93 0.700012 46.24 0.800012C47.5749 0.793127 48.8968 1.06127 50.1235 1.58774C51.3502 2.1142 52.4553 2.8877 53.37 3.86001C54.5681 5.09896 55.2783 6.72897 55.37 8.45001C55.4801 9.47373 55.4801 10.5063 55.37 11.53C55.2153 12.6692 54.8195 13.7624 54.2091 14.7367C53.5987 15.7109 52.7876 16.5439 51.83 17.18C51.1583 17.568 50.4674 17.9217 49.76 18.24ZM39.69 16.75H44.56C46.1456 16.8137 47.7167 16.4252 49.09 15.63C50.2472 14.9489 51.1337 13.8892 51.6 12.63C52.0418 11.5371 52.18 10.345 52 9.18001C51.873 8.10135 51.4814 7.07079 50.86 6.18001C50.2737 5.42797 49.5201 4.82306 48.6591 4.41337C47.7981 4.00368 46.8533 3.80051 45.9 3.82001C41.9 3.73001 37.9 3.82001 33.9 3.76001C33.09 3.76001 33.12 3.76001 33.12 4.57001C33.12 8.29001 33.12 12.0133 33.12 15.74C33.12 16.74 33.12 16.74 34.06 16.74L39.69 16.75Z" fill="white"/>
<path d="M234.49 24.14C232.21 24.14 229.92 24.14 227.64 24.14C227.414 24.1323 227.192 24.2012 227.011 24.3356C226.829 24.47 226.699 24.6619 226.64 24.88C226.09 26.39 225.5 27.88 224.94 29.39C224.38 30.9 223.94 32.11 223.43 33.47C223.352 33.7396 223.234 33.9958 223.08 34.23C222.928 34.43 222.707 34.5657 222.46 34.61C221.59 34.61 220.71 34.61 219.84 34.61C219.36 34.61 219.21 34.33 219.39 33.91C219.8 32.99 220.19 32.07 220.57 31.14C221.09 29.84 221.57 28.54 222.11 27.25C222.65 25.96 223.17 24.55 223.71 23.25C224.25 21.95 224.8 20.64 225.33 19.33C225.86 18.02 226.33 16.77 226.85 15.49C227.37 14.21 227.85 13.03 228.32 11.8C228.73 10.8 229.13 9.80005 229.54 8.80005L231 5.00005C231.51 3.73005 232 2.45005 232.54 1.17005C232.591 0.980013 232.707 0.81386 232.868 0.700557C233.028 0.587254 233.224 0.533988 233.42 0.550045C234.24 0.550045 235.06 0.550045 235.88 0.550045C236.102 0.540564 236.321 0.605196 236.502 0.73375C236.683 0.862305 236.816 1.04747 236.88 1.26005C237.54 3.03005 238.27 4.77005 238.96 6.53005C239.47 7.83005 239.96 9.15005 240.44 10.45C240.92 11.75 241.52 13.14 242.05 14.45C242.58 15.76 243.05 16.99 243.51 18.25C244.06 19.67 244.63 21.08 245.18 22.49C245.73 23.9 246.18 25.06 246.67 26.34C247.16 27.62 247.67 29.04 248.24 30.39C248.58 31.28 248.93 32.17 249.24 33.05C249.335 33.2953 249.441 33.5356 249.56 33.77C249.81 34.24 249.65 34.54 249.13 34.55C248.27 34.55 247.41 34.55 246.56 34.55C246.443 34.5421 246.33 34.5084 246.228 34.4513C246.126 34.3943 246.038 34.3153 245.97 34.22C245.49 33.1 245.05 31.96 244.61 30.82C244.23 29.82 243.87 28.88 243.49 27.91C243.11 26.94 242.71 25.91 242.37 24.91C242.17 24.32 241.91 24.03 241.24 24.04C239 24.16 236.75 24.14 234.49 24.14ZM228.09 21C228.46 21 228.67 21.06 228.88 21.06H239.88H240.36C240.71 21.06 240.83 20.83 240.71 20.51C240.5 19.91 240.27 19.32 240.04 18.72C239.53 17.37 239.04 16.03 238.48 14.72C237.92 13.41 237.4 11.84 236.87 10.4C236.34 8.96005 235.87 7.65005 235.33 6.28005L234.73 4.71005H234.54L228.09 21Z" fill="white"/>
<path d="M72.1 17.65C72.37 17.25 72.63 16.9 72.86 16.54C74.4 14.12 75.92 11.7 77.47 9.28001C78.87 7.09001 80.29 4.91001 81.71 2.73001C82.04 2.21001 82.38 1.73001 82.71 1.16001C82.8035 1.00998 82.9352 0.887441 83.0915 0.804877C83.2479 0.722313 83.4233 0.682677 83.6 0.690008C84.49 0.690008 85.39 0.690008 86.28 0.690008C86.46 0.690008 86.76 0.760008 86.78 0.850008C86.8282 1.06833 86.7925 1.29681 86.68 1.49001C86.02 2.49001 85.31 3.49001 84.68 4.49001C83.54 6.18001 82.43 7.89001 81.3 9.58001C80.07 11.44 78.81 13.29 77.57 15.14C76.33 16.99 75.17 18.74 73.99 20.55C73.8811 20.7309 73.8257 20.9389 73.83 21.15C73.83 25.41 73.83 29.67 73.83 33.93C73.83 34.61 73.7 34.74 73.02 34.74H71.19C70.43 34.74 70.35 34.67 70.35 33.92C70.35 29.92 70.35 25.86 70.35 21.83C70.3608 21.1129 70.1399 20.4114 69.72 19.83C67.93 17.2 66.18 14.56 64.42 11.93C63 9.82001 61.62 7.74001 60.22 5.65001C59.38 4.40001 58.56 3.14001 57.73 1.89001C57.52 1.57001 57.07 1.25001 57.36 0.890008C57.52 0.680008 58.03 0.720008 58.36 0.710008C59 0.710008 59.65 0.710008 60.29 0.710008C60.536 0.676297 60.7865 0.719753 61.0068 0.834382C61.2271 0.949012 61.4064 1.12917 61.52 1.35001C62.1 2.28001 62.7 3.21001 63.29 4.13001C64.7966 6.43667 66.3033 8.77001 67.81 11.13C69.16 13.22 70.5 15.33 71.81 17.43C71.92 17.44 72 17.5 72.1 17.65Z" fill="white"/>
<path d="M0 3.75004V0.750037H25.69C26.48 0.750037 26.85 0.660037 26.76 1.82004C26.73 2.22949 26.73 2.64059 26.76 3.05004C26.7783 3.13774 26.7764 3.22846 26.7544 3.31531C26.7324 3.40216 26.6909 3.48286 26.6331 3.55128C26.5752 3.61971 26.5026 3.67407 26.4206 3.71024C26.3387 3.74641 26.2495 3.76344 26.16 3.76004C25.95 3.76004 25.73 3.76004 25.52 3.76004C22.24 3.76004 18.96 3.76004 15.68 3.76004C15.22 3.76004 14.87 3.76004 15.04 4.40004C15.055 4.54298 15.055 4.6871 15.04 4.83004C15.04 14.4967 15.04 24.1634 15.04 33.83C15.04 34.64 14.86 34.83 14.04 34.76C13.44 34.76 12.83 34.76 12.22 34.76C11.61 34.76 11.48 34.61 11.47 33.99V4.89004C11.47 3.78004 11.47 3.78004 10.35 3.78004H0.55C0.36628 3.77926 0.182715 3.76925 0 3.75004Z" fill="white"/>
<path d="M179.59 17.63V1.54002C179.59 0.710017 179.66 0.650017 180.47 0.660017H182.28C182.87 0.660017 183.09 0.840017 183.11 1.44002C183.11 1.68002 183.11 1.93002 183.11 2.18002C183.11 10.4 183.11 18.6167 183.11 26.83C183.11 29.17 183.11 31.5 183.11 33.83C183.11 34.54 182.97 34.68 182.27 34.68H180.27C179.63 34.68 179.54 34.59 179.54 33.93V17.63H179.59Z" fill="white"/>
<path d="M180.68 49.88L180.75 49.79C180.84 48.56 181.12 48.7 182.35 48.79C182.68 48.79 182.84 49.05 182.83 49.39C182.83 49.96 182.83 50.53 182.83 51.1C182.83 53.81 182.83 56.52 182.72 59.22C182.753 59.9951 182.611 60.7676 182.302 61.4795C181.994 62.1914 181.528 62.8241 180.94 63.33C180.61 63.59 180.18 63.72 179.86 63.98C179.11 64.59 178.24 64.34 177.41 64.37C176.88 64.37 176.34 64.37 175.81 64.37C175.05 64.46 174.53 63.97 173.91 63.72C173.55 63.57 173.5 63.25 173.64 62.86C174.05 61.73 174 61.86 175.16 62.23C176.11 62.5116 177.108 62.59 178.09 62.46C178.432 62.4322 178.766 62.3372 179.071 62.1804C179.377 62.0236 179.648 61.808 179.87 61.546C180.092 61.284 180.26 60.9808 180.365 60.6538C180.47 60.3267 180.509 59.9822 180.48 59.64C180.48 59.37 180.56 59.11 180.56 58.85C180.56 58.59 180.47 58.6 180.42 58.48C180.32 58.53 180.18 58.55 180.11 58.63C179.371 59.3311 178.402 59.7392 177.385 59.7778C176.367 59.8165 175.37 59.4831 174.58 58.84C173.736 58.1361 173.111 57.206 172.778 56.159C172.445 55.1121 172.418 53.9919 172.7 52.93C172.914 51.6788 173.545 50.5369 174.49 49.69C175.178 49.0833 176.032 48.6985 176.943 48.5861C177.853 48.4737 178.775 48.6388 179.59 49.06C179.971 49.309 180.335 49.5829 180.68 49.88ZM180.46 54.13C180.515 53.5279 180.515 52.9221 180.46 52.32C180.322 51.7761 180.016 51.2898 179.585 50.9305C179.153 50.5713 178.62 50.3576 178.06 50.32C177.508 50.2787 176.956 50.4045 176.476 50.6809C175.997 50.9573 175.611 51.3716 175.37 51.87C174.895 52.8938 174.745 54.0384 174.94 55.15C174.979 55.9298 175.32 56.6638 175.892 57.196C176.463 57.7281 177.219 58.0166 178 58C178.643 57.9424 179.246 57.6621 179.704 57.2075C180.162 56.7529 180.447 56.1525 180.51 55.51L180.46 54.13Z" fill="white"/>
<path d="M127 52.3201C126.877 50.3859 127.508 48.4794 128.76 47.0001C129.973 45.5845 131.678 44.6806 133.53 44.4701C134.771 44.3497 136.023 44.4001 137.25 44.62C137.336 44.634 137.42 44.6575 137.5 44.69C137.712 44.712 137.912 44.7971 138.075 44.9343C138.237 45.0716 138.355 45.2546 138.412 45.4596C138.469 45.6646 138.463 45.882 138.395 46.0837C138.327 46.2853 138.2 46.4617 138.03 46.5901C137.924 46.6577 137.805 46.7016 137.681 46.7189C137.557 46.7361 137.43 46.7263 137.31 46.69C136.342 46.3789 135.324 46.2533 134.31 46.3201C133.186 46.3819 132.107 46.7867 131.22 47.4801C130.673 47.9216 130.224 48.4725 129.902 49.0976C129.58 49.7227 129.392 50.4081 129.35 51.1101C129.266 52.1105 129.299 53.1174 129.45 54.1101C129.566 54.8756 129.872 55.5999 130.34 56.2166C130.808 56.8332 131.424 57.3227 132.13 57.64C133.4 58.1438 134.784 58.2857 136.13 58.05C136.565 57.9777 136.993 57.8707 137.41 57.7301C137.87 57.5901 138.12 57.7301 138.21 58.2001C138.44 59.4901 138.57 59.4601 137.39 59.7301C136.299 59.9667 135.187 60.094 134.07 60.1101C132.513 60.1498 130.987 59.6637 129.74 58.7301C128.566 57.9134 127.722 56.7041 127.36 55.3201C127.12 54.3201 126.97 53.39 126.78 52.42L127 52.3201Z" fill="white"/>
<path d="M220.39 60C218.921 60.1447 217.446 59.7926 216.2 59C214.919 58.2523 213.934 57.0873 213.41 55.7C212.739 53.963 212.603 52.0649 213.02 50.25C213.201 49.2512 213.597 48.3036 214.181 47.473C214.764 46.6424 215.522 45.9488 216.4 45.44C218.319 44.316 220.601 43.9859 222.76 44.52C223.143 44.5862 223.521 44.6798 223.89 44.8C224.36 44.99 224.45 45.34 224.22 45.8C223.77 46.8 223.75 46.8 222.73 46.49C221.312 46.0408 219.781 46.0974 218.4 46.65C217.333 47.0217 216.451 47.7923 215.94 48.8C215.471 49.7104 215.194 50.7071 215.125 51.7287C215.057 52.7502 215.198 53.7751 215.54 54.74C215.843 55.6855 216.438 56.5106 217.239 57.0964C218.041 57.6822 219.007 57.9986 220 58C220.923 57.9865 221.844 57.9231 222.76 57.81C222.812 57.8245 222.868 57.8245 222.92 57.81C223.2 57.66 223.56 57.32 223.81 57.67C224.062 58.0711 224.213 58.5276 224.25 59C224.25 59.15 223.93 59.47 223.71 59.52C222.61 59.77 221.49 59.95 220.38 60.15L220.39 60Z" fill="white"/>
<path d="M100.93 48.61C102.137 48.5227 103.333 48.882 104.292 49.6195C105.251 50.3571 105.905 51.4215 106.13 52.61C106.63 55.09 106.26 57.6101 103.74 59.2701C102.742 59.8974 101.562 60.172 100.39 60.05C99.5515 60.0036 98.7386 59.7442 98.0282 59.2963C97.3178 58.8483 96.7333 58.2267 96.33 57.4901C95.7041 56.3425 95.4557 55.0269 95.62 53.73C95.6432 52.9289 95.8468 52.1433 96.2155 51.4317C96.5843 50.7202 97.1088 50.1009 97.75 49.62C98.6404 48.8865 99.7795 48.5247 100.93 48.61ZM97.81 54.41C97.8484 55.3496 98.131 56.263 98.63 57.0601C98.8707 57.4569 99.2109 57.7839 99.6171 58.0085C100.023 58.2331 100.481 58.3476 100.945 58.3405C101.409 58.3334 101.863 58.2051 102.262 57.9682C102.661 57.7313 102.992 57.3941 103.22 56.9901C103.735 56.1855 104.008 55.2503 104.008 54.295C104.008 53.3398 103.735 52.4046 103.22 51.6C103.005 51.2803 102.726 51.009 102.4 50.8034C102.074 50.5977 101.709 50.4624 101.327 50.4059C100.946 50.3494 100.558 50.3731 100.186 50.4754C99.8146 50.5777 99.4685 50.7564 99.17 51C98.7204 51.4439 98.3674 51.976 98.1334 52.5628C97.8993 53.1497 97.7892 53.7786 97.81 54.41Z" fill="white"/>
<path d="M139.42 54.77C139.51 52.19 140.25 50.39 142.18 49.26C142.807 48.8461 143.539 48.6174 144.29 48.6C145.246 48.5185 146.208 48.6447 147.11 48.97C147.764 49.2701 148.348 49.7036 148.825 50.2426C149.302 50.7815 149.662 51.4142 149.88 52.1C150.37 53.5086 150.37 55.0414 149.88 56.45C149.659 57.1376 149.295 57.7708 148.813 58.3084C148.33 58.846 147.74 59.2759 147.08 59.57C145.972 60.0763 144.726 60.1994 143.54 59.92C142.715 59.7641 141.946 59.391 141.313 58.839C140.681 58.2871 140.206 57.5763 139.94 56.78C139.722 56.1222 139.549 55.4508 139.42 54.77ZM147.94 54.24C147.895 53.26 147.595 52.3088 147.07 51.48C146.787 51.0911 146.408 50.7817 145.971 50.5817C145.533 50.3816 145.052 50.2977 144.572 50.3379C144.093 50.3781 143.632 50.5411 143.234 50.8112C142.836 51.0813 142.514 51.4494 142.3 51.88C141.93 52.6294 141.737 53.4541 141.737 54.29C141.737 55.1259 141.93 55.9506 142.3 56.7C142.471 57.094 142.734 57.4411 143.067 57.7122C143.4 57.9832 143.794 58.1702 144.214 58.2575C144.635 58.3447 145.07 58.3296 145.483 58.2134C145.897 58.0973 146.276 57.8834 146.59 57.59C147.025 57.1485 147.369 56.6251 147.6 56.0501C147.832 55.4751 147.948 54.8599 147.94 54.24Z" fill="white"/>
<path d="M232.1 58.7301C231.551 59.1038 230.976 59.4379 230.38 59.7301C228.82 60.3501 226.63 60.0401 225.81 58.2901C225.596 57.8558 225.474 57.3825 225.45 56.8991C225.426 56.4158 225.501 55.9326 225.67 55.4793C225.84 55.0261 226.1 54.6122 226.435 54.2632C226.771 53.9143 227.174 53.6375 227.62 53.4501C228.644 53.007 229.737 52.7431 230.85 52.6701C231.17 52.6701 231.73 52.5401 231.74 52.4301C231.782 52.0119 231.71 51.59 231.53 51.2101C231.234 50.7847 230.807 50.4676 230.314 50.307C229.822 50.1463 229.29 50.1509 228.8 50.3201C228.251 50.454 227.713 50.6278 227.19 50.8401C226.8 50.9801 226.56 50.9101 226.43 50.4601C226.17 49.5301 226.3 49.3401 227.22 48.9901C228.484 48.5489 229.836 48.4219 231.16 48.6201C231.742 48.7735 232.279 49.0603 232.731 49.4578C233.182 49.8553 233.534 50.3526 233.76 50.9101C234.037 51.885 234.162 52.897 234.13 53.9101C234.13 55.6501 234.13 57.4001 234.18 59.1401C234.18 59.8001 234.04 59.9201 233.39 59.8901H233.07C232.33 59.8901 232.2 59.7801 232.15 59.0601C232.141 58.949 232.124 58.8387 232.1 58.7301ZM231.83 55.4501C231.85 55.1671 231.85 54.883 231.83 54.6001C231.83 54.4801 231.6 54.2801 231.49 54.2901C230.351 54.2516 229.228 54.5621 228.27 55.1801C228.015 55.4377 227.834 55.7599 227.748 56.1121C227.662 56.4644 227.673 56.8336 227.78 57.1801C227.886 57.5007 228.092 57.7792 228.367 57.9752C228.642 58.1711 228.972 58.2744 229.31 58.2701C229.673 58.2902 230.035 58.2283 230.371 58.0892C230.706 57.9501 231.006 57.7372 231.248 57.4663C231.49 57.1954 231.668 56.8735 231.769 56.5245C231.87 56.1755 231.891 55.8082 231.83 55.4501Z" fill="white"/>
<path d="M189.48 54.7301H187.66C187.12 54.7301 187 54.8701 187.12 55.4201C187.182 56.1445 187.511 56.82 188.043 57.3153C188.576 57.8106 189.273 58.0903 190 58.1001C191.008 58.1009 192.013 57.997 193 57.7901C193.31 57.7901 193.52 57.7901 193.64 58.0501C193.747 58.2763 193.838 58.5103 193.91 58.7501C193.934 58.8262 193.942 58.9065 193.934 58.986C193.926 59.0654 193.901 59.1423 193.862 59.2118C193.822 59.2812 193.769 59.3418 193.705 59.3897C193.641 59.4376 193.568 59.4718 193.49 59.4901C192.115 60.0041 190.63 60.1522 189.18 59.9201C188.288 59.8253 187.442 59.4734 186.746 58.9071C186.05 58.3408 185.534 57.5844 185.26 56.7301C184.893 55.7737 184.752 54.7456 184.848 53.7258C184.943 52.7059 185.272 51.7219 185.81 50.8501C186.292 50.0188 187.014 49.3526 187.881 48.9386C188.748 48.5246 189.72 48.3822 190.67 48.5301C191.695 48.6824 192.635 49.187 193.328 49.9571C194.022 50.7272 194.425 51.7147 194.47 52.7501C194.47 53.1701 194.56 53.6001 194.55 54.0301C194.55 54.6601 194.31 54.8101 193.68 54.8101C192.27 54.8101 190.86 54.8101 189.46 54.8101L189.48 54.7301ZM189.81 53.0501C190.55 53.0501 191.3 53.0501 192.05 53.0501C192.18 53.0501 192.44 52.7901 192.41 52.7101C192.304 52.1538 192.105 51.6195 191.82 51.1301C191.572 50.8118 191.25 50.5592 190.882 50.3942C190.514 50.2292 190.111 50.1568 189.708 50.1834C189.306 50.2101 188.916 50.3349 188.573 50.547C188.23 50.7591 187.944 51.0519 187.74 51.4001C187.564 51.7226 187.411 52.0567 187.28 52.4001C187.06 52.9101 187.11 53.0001 187.67 53.0101C188.38 53.0601 189.09 53.0501 189.81 53.0501Z" fill="white"/>
<path d="M252.84 54.74H246C245.43 54.74 245.31 54.86 245.45 55.39C245.51 55.8849 245.692 56.3571 245.98 56.7639C246.268 57.1707 246.653 57.4993 247.1 57.72C247.832 57.9771 248.604 58.1056 249.38 58.1C250.08 58.0448 250.774 57.9209 251.45 57.73C251.519 57.7158 251.591 57.7158 251.66 57.73C252.19 57.87 252.15 58.39 252.24 58.73C252.249 58.8592 252.226 58.9886 252.174 59.107C252.121 59.2254 252.041 59.3294 251.94 59.41C250.547 59.9788 249.024 60.1485 247.54 59.9C246.663 59.7891 245.834 59.4355 245.146 58.879C244.459 58.3225 243.941 57.5852 243.65 56.75C243.224 55.5896 243.12 54.3356 243.349 53.1208C243.578 51.906 244.131 50.7758 244.95 49.85C245.52 49.2979 246.215 48.8921 246.976 48.6674C247.737 48.4428 248.542 48.4059 249.32 48.56C250.038 48.6856 250.711 48.9987 251.269 49.4675C251.827 49.9364 252.252 50.5444 252.5 51.23C253 52.37 252.59 53.52 252.84 54.74ZM248.06 53C248.82 53 249.59 53 250.35 53C250.5 53 250.78 52.8 250.77 52.75C250.704 51.9603 250.347 51.2229 249.77 50.68C249.52 50.4629 249.227 50.3002 248.911 50.2021C248.594 50.1041 248.261 50.0729 247.932 50.1105C247.603 50.1481 247.285 50.2537 246.999 50.4206C246.713 50.5875 246.465 50.8121 246.27 51.08C245.963 51.5089 245.714 51.9762 245.53 52.47C245.3 52.93 245.34 53 245.88 53.01L248.06 53Z" fill="white"/>
<path d="M168.47 58.72C168.328 58.7763 168.194 58.8502 168.07 58.94C167.724 59.2995 167.307 59.5829 166.846 59.7723C166.384 59.9617 165.889 60.0529 165.39 60.04C164.637 60.0976 163.887 59.8917 163.268 59.4576C162.65 59.0235 162.202 58.3881 162 57.66C161.824 56.9992 161.844 56.3016 162.057 55.6519C162.27 55.0022 162.667 54.4283 163.2 54C164.454 53.1482 165.934 52.6919 167.45 52.69C168.31 52.62 168.39 52.57 168.14 51.75C167.986 51.2387 167.646 50.8039 167.186 50.5317C166.727 50.2594 166.182 50.1696 165.66 50.28C164.982 50.457 164.315 50.6707 163.66 50.92C163.56 50.92 163.4 51.01 163.36 50.92C163.11 50.6375 162.901 50.321 162.74 49.98C162.725 49.8663 162.74 49.7508 162.782 49.6442C162.824 49.5375 162.892 49.4432 162.98 49.37C163.49 49.0534 164.047 48.8204 164.63 48.68C165.874 48.3489 167.191 48.4225 168.39 48.89C168.978 49.1596 169.478 49.5899 169.832 50.1313C170.185 50.6728 170.379 51.3033 170.39 51.95C170.51 53.95 170.48 55.95 170.52 57.95C170.52 58.34 170.58 58.73 170.62 59.11C170.64 59.189 170.642 59.2718 170.625 59.3516C170.607 59.4314 170.571 59.506 170.52 59.5693C170.468 59.6326 170.402 59.6828 170.328 59.716C170.253 59.7491 170.172 59.7642 170.09 59.76C169.791 59.79 169.489 59.79 169.19 59.76C168.56 59.79 168.55 59.27 168.47 58.72ZM168.37 55.45C168.369 55.1682 168.342 54.887 168.29 54.61C168.261 54.5386 168.215 54.4756 168.156 54.4267C168.096 54.3777 168.026 54.3445 167.95 54.33C166.87 54.3123 165.802 54.5595 164.84 55.05C164.624 55.2202 164.447 55.4346 164.321 55.6788C164.194 55.923 164.122 56.1914 164.107 56.466C164.093 56.7406 164.138 57.015 164.238 57.271C164.339 57.5269 164.493 57.7584 164.69 57.95C165.099 58.2408 165.597 58.3773 166.097 58.3352C166.597 58.2931 167.066 58.0751 167.42 57.72C167.764 57.4583 168.032 57.1108 168.199 56.7123C168.366 56.3138 168.425 55.8785 168.37 55.45Z" fill="white"/>
<path d="M63.69 50.36C63.7325 50.2052 63.7965 50.057 63.88 49.92C64.3421 49.3571 64.9569 48.9397 65.6505 48.718C66.3442 48.4962 67.0871 48.4795 67.79 48.67C68.4971 48.8018 69.1461 49.1495 69.6475 49.6652C70.1489 50.181 70.4782 50.8394 70.59 51.55C70.7645 52.4368 70.8648 53.3365 70.89 54.24C70.89 55.84 70.89 57.45 70.89 59.05C70.89 59.72 70.74 59.87 70.08 59.89C68.55 59.89 68.55 59.89 68.55 58.39C68.55 56.52 68.55 54.65 68.55 52.78C68.5485 52.3261 68.4167 51.8823 68.1703 51.5011C67.9239 51.12 67.5732 50.8176 67.16 50.63C66.6617 50.4681 66.126 50.4618 65.624 50.6119C65.1221 50.7619 64.6777 51.0612 64.35 51.47C63.9317 51.9815 63.7179 52.63 63.75 53.29V59C63.75 59.8 63.61 59.94 62.83 59.93C61.45 59.93 61.46 59.93 61.45 58.56C61.45 55.6 61.45 52.64 61.45 49.68C61.45 49.01 61.57 48.87 62.25 48.87H62.35C63.46 48.87 63.46 48.87 63.48 49.95C63.4751 50.0366 63.4751 50.1234 63.48 50.21L63.69 50.36Z" fill="white"/>
<path d="M198.74 50.11C199 49.88 199.18 49.75 199.34 49.59C201.24 47.77 204.9 48.24 205.73 51.14C205.92 51.7904 206.024 52.4627 206.04 53.14C206.09 55.05 206.04 56.96 206.04 58.86C206.04 59.71 205.95 59.8 205.09 59.78H204.77C204.03 59.78 203.77 59.63 203.77 58.91C203.77 57.36 203.77 55.81 203.77 54.26C203.779 53.4938 203.702 52.729 203.54 51.98C203.486 51.7128 203.379 51.4593 203.223 51.2352C203.068 51.0112 202.869 50.8212 202.637 50.6769C202.406 50.5327 202.148 50.4373 201.878 50.3966C201.609 50.3558 201.334 50.3706 201.07 50.44C200.478 50.5533 199.945 50.8726 199.567 51.3412C199.188 51.8098 198.987 52.3975 199 53C199 54.9 199 56.81 199 58.72C199 59.1 199.1 59.64 198.63 59.72C198.06 59.7931 197.481 59.766 196.92 59.64C196.81 59.64 196.72 59.14 196.72 58.87C196.72 57.04 196.72 55.2 196.72 53.36C196.72 52.1 196.66 50.83 196.64 49.57C196.64 48.8 196.73 48.7 197.49 48.69H197.97C198.063 48.6781 198.158 48.6869 198.247 48.7156C198.336 48.7444 198.418 48.7924 198.487 48.8563C198.556 48.9203 198.609 48.9985 198.645 49.0856C198.68 49.1726 198.695 49.2663 198.69 49.36C198.67 49.59 198.7 49.79 198.74 50.11Z" fill="white"/>
<path d="M56.48 58.4901C56.3597 58.5672 56.246 58.6542 56.14 58.7501C55.6804 59.2703 55.0916 59.6599 54.4331 59.8794C53.7746 60.0989 53.0697 60.1405 52.39 60.0001C51.5846 59.8559 50.8509 59.4453 50.3069 58.8341C49.7629 58.223 49.4399 57.4468 49.39 56.6301C49.39 56.1501 49.3 55.6301 49.29 55.1901C49.29 53.3801 49.29 51.5601 49.22 49.7401C49.22 48.9301 49.34 48.7401 50.17 48.7401C51.45 48.7401 51.45 48.7401 51.45 50.0301C51.45 51.5301 51.45 53.0301 51.45 54.5201C51.4867 55.2836 51.604 56.0412 51.8 56.7801C51.9561 57.2566 52.2926 57.6532 52.7374 57.8849C53.1821 58.1167 53.6999 58.1652 54.18 58.0201C54.7858 57.9241 55.3339 57.6053 55.7169 57.1262C56.0998 56.6471 56.2899 56.0421 56.25 55.4301C56.25 53.5301 56.25 51.6201 56.25 49.7101C56.25 48.9001 56.39 48.7101 57.25 48.7101C58.58 48.7101 58.55 48.5801 58.55 50.0201C58.55 52.5101 58.55 55.0201 58.55 57.5001C58.55 58.0201 58.62 58.5001 58.64 59.0501C58.66 59.6001 58.46 59.8101 57.87 59.7801C57.8168 59.7751 57.7632 59.7751 57.71 59.7801C56.82 59.7801 56.47 59.7201 56.6 58.6701C56.57 58.7201 56.53 58.6601 56.48 58.4901Z" fill="white"/>
<path d="M110.5 50.1201C110.79 49.8801 110.99 49.7401 111.17 49.5701C111.641 49.1385 112.212 48.8294 112.831 48.6699C113.45 48.5105 114.098 48.5056 114.72 48.6557C115.341 48.8059 115.916 49.1064 116.394 49.5309C116.871 49.9554 117.238 50.4908 117.46 51.0901C117.662 51.7382 117.773 52.4113 117.79 53.0901C117.79 55.0901 117.79 57.0201 117.79 58.9801C117.79 59.8401 117.72 59.9101 116.79 59.9001H116.37C115.7 59.9001 115.54 59.7501 115.54 59.0901C115.54 57.3901 115.54 55.7001 115.54 54.0101C115.545 53.336 115.464 52.664 115.3 52.0101C115.249 51.7642 115.15 51.531 115.007 51.3242C114.865 51.1175 114.682 50.9413 114.471 50.8062C114.259 50.671 114.023 50.5796 113.775 50.5373C113.528 50.4951 113.274 50.5028 113.03 50.5601C112.366 50.6014 111.744 50.9006 111.298 51.3938C110.851 51.887 110.615 52.5352 110.64 53.2001C110.64 55.1201 110.64 57.0501 110.64 58.9701C110.64 59.8301 110.55 59.9701 109.64 59.9101C108.33 59.9101 108.33 59.9101 108.33 58.6201C108.33 56.1201 108.33 53.6201 108.33 51.1301C108.33 50.6101 108.26 50.1301 108.23 49.5801C108.2 49.0301 108.38 48.8201 108.91 48.8501C109.11 48.8501 109.3 48.8501 109.5 48.8501C110.08 48.8501 110.24 49.0001 110.29 49.5901C110.41 49.6801 110.45 49.8301 110.5 50.1201Z" fill="white"/>
<path d="M9.84001 53.19C9.84001 51.12 9.84001 49.06 9.84001 46.99C9.84001 46.61 9.63 46.59 9.36 46.59H6.16001C5.38001 46.59 5.29001 46.5 5.30001 45.75V45.59C5.30001 44.7 5.40001 44.59 6.30001 44.59H15.17C15.42 44.59 15.66 44.59 15.91 44.59C16.4 44.54 16.64 44.71 16.65 45.19C16.65 46.5 16.82 46.63 15.4 46.6C14.4 46.6 13.51 46.6 12.56 46.6C12.19 46.6 12.03 46.72 12.12 47.11C12.1402 47.3396 12.1402 47.5704 12.12 47.8C12.12 51.52 12.12 55.25 12.12 58.97C12.12 59.81 12 59.97 11.18 59.97H10.8C9.96001 59.97 9.80001 59.82 9.80001 58.97V53.19H9.84001Z" fill="white"/>
<path d="M45.24 55.2C45.24 56.52 45.24 57.84 45.24 59.2C45.24 59.83 45.07 59.97 44.43 59.93H44.11C43.11 59.93 43.11 59.93 43.11 58.93C43.11 56.36 43.11 53.79 43.11 51.23C43.11 50.76 42.95 50.64 42.53 50.64C41.53 50.64 41.53 50.52 41.53 49.64C41.53 49.04 41.73 48.88 42.36 48.87C42.99 48.86 43.09 48.87 43.1 48.1C43.0485 47.3893 43.1719 46.6767 43.4596 46.0247C43.7472 45.3727 44.1903 44.8011 44.75 44.36C45.5661 43.775 46.5751 43.5246 47.57 43.66L48.1 43.73C48.57 43.73 48.82 44.01 48.77 44.49C48.77 44.71 48.7 44.92 48.69 45.13C48.69 45.63 48.4 45.69 47.97 45.65C47.5086 45.5899 47.0414 45.5899 46.58 45.65C46.2721 45.7197 46.0012 45.9015 45.82 46.16C45.3789 46.8744 45.1889 47.7155 45.28 48.55C45.28 48.66 45.53 48.82 45.68 48.83C46.1762 48.8601 46.6738 48.8601 47.17 48.83C47.62 48.83 47.82 48.99 47.83 49.45C47.83 50.64 47.83 50.64 46.69 50.64H45.69C45.34 50.64 45.2 50.79 45.21 51.16C45.21 52.52 45.21 53.87 45.21 55.22L45.24 55.2Z" fill="white"/>
<path d="M78.39 60.08C77.4071 60.1347 76.4293 59.9042 75.5742 59.4163C74.7191 58.9285 74.0232 58.204 73.57 57.33C73.1433 56.4502 72.9472 55.4764 73 54.5C72.9579 53.6907 73.0917 52.8819 73.392 52.1293C73.6924 51.3766 74.1523 50.698 74.74 50.14C75.7377 49.158 77.0801 48.6053 78.48 48.6C79.404 48.539 80.3305 48.6718 81.2 48.99C81.65 49.18 81.78 49.42 81.57 49.85C81.57 49.95 81.49 50.05 81.45 50.15C81.16 50.94 81.18 50.85 80.4 50.66C78.63 50.24 76.83 50.28 75.8 52.17C75.4792 52.7643 75.3012 53.4251 75.28 54.1C75.1747 54.7909 75.2716 55.4976 75.5591 56.1346C75.8465 56.7717 76.3123 57.3119 76.9 57.69C77.3462 57.9581 77.8422 58.1327 78.3579 58.2032C78.8736 58.2737 79.3983 58.2386 79.9 58.1L80.11 58.03C81.25 57.77 81.11 57.52 81.57 58.76C81.72 59.17 81.57 59.45 81.23 59.56C80.31 59.8 79.38 60 78.45 60.22L78.39 60.08Z" fill="white"/>
<path d="M86.59 53.8701C86.59 54.9201 86.59 55.9701 86.59 57.0201C86.5904 57.1934 86.6296 57.3644 86.7048 57.5206C86.78 57.6768 86.8893 57.8141 87.0245 57.9225C87.1598 58.0309 87.3176 58.1076 87.4864 58.147C87.6552 58.1864 87.8307 58.1874 88 58.1501H88.11C89.11 58.1501 89.39 58.4001 89.21 59.3901C89.185 59.498 89.1361 59.599 89.0669 59.6856C88.9976 59.7721 88.9098 59.842 88.81 59.8901C88.2898 60.0657 87.739 60.1324 87.1919 60.0859C86.6448 60.0395 86.1131 59.8809 85.63 59.6201C85.2465 59.3591 84.9341 59.0067 84.721 58.5946C84.508 58.1825 84.4011 57.7238 84.41 57.2601C84.3 55.8401 84.32 54.4201 84.3 52.9901C84.3 52.3401 84.36 51.6801 84.3 50.9901C84.2872 50.9128 84.2584 50.839 84.2153 50.7735C84.1722 50.7081 84.1159 50.6524 84.05 50.6101C83.9227 50.5485 83.7796 50.5276 83.64 50.5501C82.53 50.6101 82.64 50.4401 82.64 49.2801C82.64 48.9001 82.97 48.8201 83.3 48.8001C84.3 48.7401 84.23 48.7401 84.3 47.8001C84.3 47.4901 84.4 47.0101 84.59 46.9101C85.1393 46.6839 85.7132 46.5228 86.3 46.4301C86.3 46.4301 86.54 46.7401 86.56 46.9201C86.56 47.3701 86.56 47.8101 86.56 48.2601C86.56 48.7101 86.72 48.8901 87.18 48.8501C87.64 48.8101 88.18 48.8501 88.67 48.7901C89 48.7901 89.24 48.9001 89.28 49.2301C89.3446 49.5434 89.3446 49.8667 89.28 50.1801C89.2329 50.2815 89.1619 50.37 89.0731 50.438C88.9842 50.5059 88.8802 50.5512 88.77 50.5701C88.2205 50.605 87.6694 50.605 87.12 50.5701C86.7 50.5701 86.51 50.6701 86.53 51.1501C86.53 52.0601 86.53 52.9701 86.53 53.8801L86.59 53.8701Z" fill="white"/>
<path d="M154.59 51.83V59C154.59 59.71 154.41 59.87 153.7 59.87C152.34 59.87 152.35 59.87 152.35 58.52V44.78C152.314 44.5372 152.341 44.289 152.43 44.06C152.504 43.961 152.599 43.8792 152.707 43.8205C152.816 43.7618 152.937 43.7275 153.06 43.72C153.57 43.72 154.2 43.46 154.55 44.1C154.587 44.2545 154.587 44.4156 154.55 44.57V51.83H154.59Z" fill="white"/>
<path d="M159.73 51.81V58.91C159.73 59.78 159.65 59.91 158.8 59.91H158.48C157.68 59.91 157.54 59.78 157.54 59C157.54 55.28 157.54 51.56 157.54 47.84C157.54 46.84 157.48 45.74 157.47 44.69C157.47 43.92 157.65 43.76 158.42 43.75C159.81 43.75 159.72 43.75 159.72 45.08C159.72 47.34 159.72 49.6 159.72 51.86L159.73 51.81Z" fill="white"/>
<path d="M19 50.33C19.29 50.01 19.57 49.66 19.89 49.33C20.154 49.0738 20.4676 48.8742 20.8115 48.7435C21.1554 48.6128 21.5224 48.5538 21.89 48.57C21.9746 48.5623 22.0599 48.5734 22.1399 48.6023C22.2198 48.6313 22.2924 48.6774 22.3525 48.7375C22.4126 48.7976 22.4587 48.8702 22.4877 48.9501C22.5166 49.0301 22.5277 49.1154 22.52 49.2C22.52 49.39 22.52 49.59 22.52 49.79C22.52 50.65 22.45 50.72 21.59 50.79C20.9392 50.8544 20.3356 51.158 19.8959 51.6421C19.4562 52.1261 19.2118 52.7561 19.21 53.41C19.21 55.32 19.21 57.22 19.21 59.13C19.21 59.79 19.1 59.9 18.44 59.94C16.92 60.04 16.87 59.94 16.86 58.48C16.86 55.55 16.86 52.63 16.86 49.71C16.86 49 16.99 48.87 17.7 48.87H18C18.72 48.87 18.94 49.11 18.88 49.87C18.87 50.0365 18.87 50.2035 18.88 50.37L19 50.33Z" fill="white"/>
<path d="M239 50.21C239.25 49.91 239.44 49.7 239.62 49.5C239.889 49.1772 240.227 48.9194 240.61 48.7462C240.993 48.573 241.41 48.4889 241.83 48.5C242.37 48.5 242.56 48.72 242.55 49.26V49.37C242.55 50.54 242.55 50.5 241.35 50.66C240.957 50.6966 240.582 50.8411 240.266 51.0776C239.95 51.3141 239.706 51.6333 239.56 52C239.303 52.6371 239.158 53.3136 239.13 54C239.07 55.62 239.13 57.25 239.13 58.87C239.13 59.7 239.01 59.87 238.13 59.79C236.89 59.73 236.89 59.73 236.89 58.5C236.89 55.9267 236.89 53.36 236.89 50.8C236.89 50.32 236.83 49.8 236.79 49.36C236.75 48.92 236.99 48.7 237.43 48.69H237.75C238.75 48.69 238.75 48.69 238.83 49.69C238.88 49.83 238.93 50 239 50.21Z" fill="white"/>
<path d="M26.5 54.3901V59.1501C26.5 59.7801 26.29 59.9701 25.65 59.9301C24.25 59.8501 24.25 59.8501 24.25 58.4201V49.7601C24.25 48.9801 24.4 48.8301 25.19 48.8501C26.46 48.8501 26.45 48.8501 26.45 50.1101V54.3901H26.5Z" fill="white"/>
<path d="M93.39 54.4V59.16C93.39 59.79 93.23 59.92 92.58 59.89C91.21 59.81 91.22 59.81 91.22 58.43C91.22 55.51 91.22 52.5867 91.22 49.66C91.22 48.88 91.35 48.76 92.12 48.81C93.4 48.9 93.4 48.9 93.4 50.18L93.39 54.4Z" fill="white"/>
<path d="M34.54 55.6C33.6 55.6 32.65 55.6 31.71 55.6C31.29 55.6 31.07 55.46 31.08 55.01C31.09 54.56 31.08 54.3 31.08 53.95C31.08 53.6 31.29 53.38 31.67 53.37H37.17C37.87 53.37 38 53.51 37.98 54.23C37.98 54.23 37.98 54.33 37.98 54.39C37.98 55.62 37.98 55.62 36.69 55.62H34.54V55.6Z" fill="white"/>
<path d="M25.3 47.14C25.1218 47.1336 24.9467 47.092 24.7847 47.0175C24.6226 46.943 24.477 46.8371 24.3561 46.706C24.2353 46.5749 24.1416 46.4212 24.0804 46.2537C24.0193 46.0861 23.992 45.9082 24 45.73C24.0313 45.3643 24.1947 45.0224 24.4598 44.7685C24.7248 44.5145 25.0733 44.3657 25.44 44.35C25.8037 44.3898 26.1425 44.5538 26.3994 44.8143C26.6562 45.0748 26.8154 45.4159 26.85 45.78C26.8218 46.1648 26.6435 46.523 26.3535 46.7774C26.0635 47.0318 25.6852 47.1621 25.3 47.14Z" fill="white"/>
<path d="M90.89 45.74C90.8997 45.3742 91.0473 45.0256 91.3032 44.7641C91.5592 44.5026 91.9045 44.3476 92.27 44.33C92.6453 44.3425 93.0018 44.4972 93.2673 44.7627C93.5329 45.0282 93.6875 45.3847 93.7 45.76C93.6822 46.1262 93.5254 46.4719 93.2615 46.7264C92.9977 46.981 92.6466 47.1254 92.28 47.13C91.9114 47.13 91.5578 46.9836 91.2971 46.7229C91.0365 46.4622 90.89 46.1087 90.89 45.74Z" fill="white"/>
</g>
<defs>
<clipPath id="clip0_2_8">
<rect width="252.84" height="64.37" fill="white"/>
</clipPath>
</defs>
</svg>
