<svg width="347" height="89" viewBox="0 0 347 89" fill="none" xmlns="http://www.w3.org/2000/svg">
<g clip-path="url(#clip0_2_64)">
<path d="M153.57 44C153.65 43.74 153.7 43.47 153.8 43.22C154.467 41.54 155.153 39.8734 155.86 38.22C156.58 36.45 157.28 34.67 157.99 32.9C158.7 31.13 159.44 29.31 160.15 27.51C160.86 25.71 161.57 23.86 162.3 22.05C163.03 20.24 163.75 18.56 164.46 16.82C165.17 15.08 165.84 13.35 166.53 11.62C167.22 9.89004 167.93 8.12004 168.63 6.37004C169.15 5.04004 169.71 3.72004 170.19 2.37004C170.67 1.02004 170.84 0.950039 172.12 0.950039C173.07 0.950039 174.02 0.950039 174.97 0.950039C175.308 0.906214 175.651 0.989269 175.932 1.18317C176.212 1.37708 176.411 1.66809 176.49 2.00004C177.79 5.38671 179.087 8.78004 180.38 12.18C181.4 14.8467 182.43 17.4834 183.47 20.09C184.6 22.95 185.77 25.79 186.88 28.65C187.99 31.51 189.05 34.44 190.16 37.32C191.07 39.67 192.03 42 192.96 44.32C193.26 45.09 193.54 45.86 193.82 46.63C194.03 47.2 193.82 47.5 193.22 47.51C192.051 47.5801 190.879 47.5801 189.71 47.51C189.49 47.4415 189.286 47.3267 189.114 47.1732C188.941 47.0197 188.804 46.8311 188.71 46.62C187.42 43.41 186.19 40.17 184.94 36.95C184.54 35.95 184.07 34.89 183.77 33.83C183.58 33.15 183.17 33.17 182.68 33.17H171.68C168.95 33.17 166.21 33.17 163.48 33.17C163.368 33.1485 163.253 33.1497 163.142 33.1734C163.031 33.1972 162.925 33.2431 162.832 33.3084C162.739 33.3736 162.659 33.457 162.599 33.5535C162.538 33.65 162.498 33.7576 162.48 33.87C161.8 35.79 161.03 37.67 160.31 39.58C159.59 41.49 158.9 43.39 158.2 45.3C157.99 45.84 157.78 46.38 157.56 46.92C157.34 47.46 156.72 47.52 156.2 47.52H150.3H124.37C122.88 47.52 122.81 47.43 122.82 45.95C122.82 43.73 122.82 41.51 122.82 39.28C122.82 27.2 122.82 15.11 122.82 3.02004C122.82 0.430039 123.09 0.930039 124.98 0.890039C125.55 0.890039 126.11 0.890039 126.67 0.890039C127.23 0.890039 127.56 1.22004 127.59 1.79004C127.59 2.18004 127.59 2.57004 127.59 2.96004C127.59 15.9534 127.59 28.9534 127.59 41.96C127.59 43.49 127.59 43.39 129.02 43.39C136.687 43.39 144.353 43.39 152.02 43.39C152.527 43.4467 153.024 43.5677 153.5 43.75L153.57 44ZM181.2 29C181.73 29.09 181.84 28.82 181.68 28.38C181.43 27.72 181.15 27.08 180.9 26.43C180.36 25.01 179.83 23.58 179.29 22.15C178.59 20.3 177.9 18.44 177.2 16.58C176.68 15.2 176.2 13.83 175.63 12.45C174.95 10.61 174.27 8.78004 173.57 6.95004C173.57 6.79004 173.33 6.69004 173.2 6.56004C173.079 6.69925 172.972 6.84997 172.88 7.01004C172.59 7.74004 172.33 8.50004 172.05 9.24004C171.35 11.04 170.63 12.83 169.93 14.63C169.4 15.99 168.93 17.34 168.36 18.7C167.66 20.5 166.957 22.3 166.25 24.1C165.75 25.39 165.25 26.67 164.74 27.96C164.649 28.2683 164.579 28.5823 164.53 28.9C164.79 28.9 165.06 28.98 165.32 29C165.58 29.02 165.76 29 165.98 29H181.2Z" fill="white"/>
<path d="M291.58 39.3C291.621 39.0784 291.651 38.8547 291.67 38.63C291.67 26.47 291.67 14.31 291.67 2.15003C291.67 0.860034 291.75 0.800034 293.04 0.810034H295.39C296.21 0.810034 296.49 1.08003 296.52 1.90003C296.52 2.29003 296.52 2.68003 296.52 3.07003C296.52 17.4234 296.52 31.78 296.52 46.14C296.52 47.35 296.44 47.43 295.24 47.43C294.04 47.43 293.14 47.43 292.09 47.43C291.861 47.45 291.631 47.4053 291.426 47.301C291.221 47.1967 291.049 47.037 290.93 46.84C289.58 44.84 288.21 42.84 286.85 40.9L280.8 32.16L274.09 22.38C271.85 19.12 269.613 15.8634 267.38 12.61C266.65 11.55 265.94 10.48 265.21 9.42003C265.097 9.29588 264.973 9.18209 264.84 9.08003C264.785 9.30646 264.752 9.53745 264.74 9.77003C264.74 11.3 264.84 12.84 264.84 14.38C264.84 25.0467 264.84 35.7134 264.84 46.38C264.84 47.2 264.63 47.38 263.84 47.44C262.84 47.44 261.79 47.44 260.77 47.44C260.667 47.4557 260.562 47.4492 260.462 47.4209C260.361 47.3926 260.268 47.3432 260.189 47.2759C260.109 47.2086 260.045 47.1251 260 47.031C259.956 46.9368 259.932 46.8342 259.93 46.73C259.93 46.37 259.93 46 259.93 45.64V2.74003C259.93 2.3267 259.95 1.9167 259.99 1.51003C259.99 0.980034 260.36 0.840034 260.84 0.840034C261.98 0.840034 263.13 0.840034 264.27 0.840034C264.564 0.844434 264.851 0.929832 265.1 1.08684C265.349 1.24386 265.549 1.46641 265.68 1.73003C267.09 3.73003 268.49 5.79003 269.88 7.83003C272 10.91 274.1 14 276.22 17.08C278.59 20.52 280.98 23.95 283.34 27.39L291.13 38.82C291.27 38.9892 291.42 39.1495 291.58 39.3Z" fill="#C5C5C4"/>
<path d="M233.38 40.0001C232.84 40.7601 232.38 41.5601 231.75 42.2901C230.159 44.2282 228.144 45.7747 225.86 46.8101C223.205 47.9406 220.351 48.5317 217.465 48.5489C214.579 48.566 211.719 48.009 209.05 46.9101C206.217 45.746 203.694 43.9383 201.68 41.6301C199.906 39.5942 198.517 37.2528 197.58 34.7201C196.727 32.5661 196.175 30.3048 195.94 28.0001C195.534 24.7552 195.656 21.4661 196.3 18.2601C196.651 16.5818 197.122 14.9309 197.71 13.3201C199.087 9.6864 201.453 6.51017 204.54 4.15005C206.033 3.02792 207.663 2.10046 209.39 1.39005C210.18 1.06005 211.06 0.920054 211.88 0.640054C215.21 -0.529946 218.63 0.310054 222 0.110054C222.663 0.18882 223.306 0.385233 223.9 0.690054C226.502 1.45107 228.92 2.74135 231 4.48005C233.405 6.62033 235.205 9.35499 236.22 12.4101C236.49 13.1701 236.69 13.9501 236.89 14.7201C237.03 15.2701 236.76 15.5801 236.22 15.5901C235.12 15.5901 234.02 15.5901 232.92 15.5901C232.685 15.5985 232.456 15.5158 232.281 15.3592C232.106 15.2026 231.998 14.9843 231.98 14.7501C231.14 10.4201 228.43 7.59005 224.61 5.75005C221.402 4.16366 217.754 3.69889 214.25 4.43005C211.222 4.96086 208.419 6.37315 206.19 8.49005C204.712 9.87115 203.54 11.5473 202.75 13.4101C202.053 14.9763 201.501 16.6031 201.1 18.2701C200.317 21.7396 200.282 25.3363 201 28.8201C201.308 30.5777 201.749 32.3094 202.32 34.0001C203.468 37.1109 205.568 39.7808 208.32 41.6301C211.473 43.7047 215.244 44.6331 219 44.2601C220.711 44.1514 222.397 43.7874 224 43.1801C227.217 41.9767 229.853 39.591 231.37 36.5101C232.568 33.9556 233.248 31.1889 233.37 28.3701C233.37 27.9501 233.23 27.7801 232.84 27.7801H218.84C217.78 27.7801 217.67 27.6601 217.67 26.6001V24.4701C217.67 23.8201 218.03 23.5401 218.67 23.5401H236.54C237.48 23.5401 237.66 23.7301 237.66 24.6601V46.3701C237.66 47.3701 237.54 47.4301 236.61 47.4301H235.22C234.3 47.4301 234.05 47.2401 233.99 46.3001C233.88 44.3801 233.78 42.4501 233.68 40.5301C233.68 40.3401 233.68 40.1601 233.6 39.9801L233.38 40.0001Z" fill="#C5C5C4"/>
<path d="M68.14 25C68.51 25.15 68.83 25.3 69.14 25.42C70.6038 25.8533 71.9074 26.7086 72.8874 27.879C73.8675 29.0494 74.4806 30.4829 74.65 32C75.04 34.69 75.07 37.43 75.27 40.1501C75.3492 42.3864 75.8692 44.5851 76.8 46.62C77.11 47.24 76.9 47.55 76.22 47.5401H73.07C72.13 47.5401 71.55 46.92 71.31 45.78C70.8223 43.416 70.6176 41.0024 70.7 38.59C70.7611 36.127 70.3081 33.6783 69.37 31.4C68.9335 30.1984 68.1443 29.1565 67.1059 28.4107C66.0675 27.6649 64.8282 27.2499 63.55 27.22C57.67 27.03 51.78 27.1301 45.9 27.1101C45.5 27.1101 45.24 27.2101 45.25 27.6901C45.29 29.8567 45.3133 32.0267 45.32 34.2001C45.32 38.2534 45.32 42.3067 45.32 46.3601C45.32 47.3601 45.14 47.59 44.1 47.59C43.27 47.59 42.44 47.59 41.61 47.59C40.78 47.59 40.61 47.32 40.61 46.48C40.61 44.6 40.61 42.7201 40.61 40.84C40.61 35.69 40.61 30.54 40.61 25.39C40.61 17.63 40.54 9.87005 40.51 2.10005C40.51 1.23005 40.75 0.95005 41.51 0.95005C45.61 0.95005 49.71 0.89005 53.81 0.90005C56.98 0.90005 60.15 0.90005 63.32 1.04005C65.1481 1.02564 66.9594 1.39057 68.6393 2.11176C70.3192 2.83296 71.8313 3.89475 73.08 5.23005C74.712 6.93154 75.6744 9.16528 75.79 11.5201C75.9351 12.923 75.9351 14.3371 75.79 15.74C75.597 17.3061 75.0694 18.8123 74.2429 20.1564C73.4164 21.5005 72.3104 22.6511 71 23.5301C70.0742 24.0718 69.1194 24.5626 68.14 25ZM54.36 23H61C63.1711 23.087 65.3219 22.5528 67.2 21.46C68.7882 20.5346 70.0046 19.0849 70.64 17.3601C71.2211 15.8549 71.3869 14.2212 71.12 12.63C70.9461 11.1556 70.4102 9.74713 69.56 8.53005C68.7641 7.51 67.7439 6.68708 66.5784 6.12518C65.413 5.56328 64.1338 5.27751 62.84 5.29005C57.35 5.16005 51.84 5.23005 46.37 5.21005C45.25 5.21005 45.29 5.21005 45.3 6.31005C45.3 11.41 45.3 16.51 45.3 21.6101C45.3 23 45.3 23 46.59 23C49.19 22.93 51.77 22.9401 54.36 22.9401V23Z" fill="white"/>
<path d="M321.12 33.0501C317.99 33.0501 314.87 33.0501 311.74 33.0501C311.428 33.0226 311.117 33.1087 310.863 33.2924C310.61 33.4761 310.431 33.7451 310.36 34.0501C309.6 36.1201 308.8 38.1701 308.02 40.2301C307.33 42.0901 306.66 43.9501 305.96 45.8101C305.852 46.1659 305.69 46.5031 305.48 46.8101C305.274 47.0835 304.975 47.272 304.64 47.3401C303.44 47.3401 302.24 47.3401 301.05 47.3401C300.39 47.3401 300.18 46.9501 300.43 46.3901C300.99 45.1301 301.53 43.8601 302.04 42.5801C302.76 40.8101 303.46 39.0301 304.16 37.2601C304.86 35.4901 305.61 33.5701 306.35 31.7301C307.09 29.8901 307.84 28.1601 308.57 26.3601C309.3 24.5601 309.95 22.8501 310.64 21.1001C311.33 19.3501 311.98 17.7301 312.64 16.0401C313.19 14.6501 313.75 13.2601 314.31 11.8701L316.31 6.87007C317.02 5.12007 317.74 3.38007 318.42 1.62007C318.489 1.36139 318.648 1.13543 318.867 0.981834C319.087 0.828235 319.353 0.756803 319.62 0.780067C320.74 0.780067 321.87 0.780067 322.99 0.780067C323.297 0.756288 323.601 0.84454 323.848 1.02844C324.094 1.21235 324.266 1.47941 324.33 1.78007C325.24 4.21007 326.24 6.59007 327.19 9.00007C327.88 10.7901 328.53 12.5901 329.19 14.3701C329.85 16.1501 330.66 18.0501 331.38 19.9001C332.1 21.7501 332.71 23.3801 333.38 25.1101C334.13 27.0501 334.91 28.9801 335.67 30.9101L337.67 36.1901L340 41.7201C340.47 42.9301 340.95 44.1501 341.43 45.3601C341.558 45.7015 341.705 46.0353 341.87 46.3601C342.21 47.0001 341.99 47.3601 341.27 47.4201C340.1 47.4201 338.92 47.4201 337.75 47.4201C337.59 47.4106 337.435 47.363 337.298 47.2812C337.16 47.1994 337.044 47.0859 336.96 46.9501C336.29 45.4201 335.69 43.8701 335.09 42.3101C334.57 40.9801 334.09 39.6501 333.56 38.3101C333.03 36.9701 332.48 35.6101 332.02 34.2401C331.999 34.0524 331.941 33.8709 331.848 33.7063C331.756 33.5416 331.632 33.3972 331.482 33.2815C331.333 33.1659 331.162 33.0814 330.98 33.033C330.797 32.9847 330.607 32.9735 330.42 33.0001C327.32 33.0901 324.22 33.0501 321.12 33.0501ZM312.35 28.7801C312.86 28.7801 313.15 28.8701 313.43 28.8701H328.43H329.08C329.57 28.8701 329.73 28.5601 329.57 28.1201C329.27 27.3001 328.97 26.4801 328.65 25.6701C327.94 23.8201 327.22 21.9801 326.51 20.1301L324.3 14.2201C323.6 12.3401 322.897 10.4601 322.19 8.58007L321.38 6.42007H321.12L312.35 28.7801Z" fill="#C5C5C4"/>
<path d="M98.74 24.17C99.11 23.62 99.46 23.17 99.74 22.65L106.06 12.71C107.98 9.71002 109.93 6.71002 111.86 3.71002C112.32 2.99002 112.79 2.28002 113.24 1.56002C113.375 1.35873 113.563 1.19945 113.785 1.10041C114.006 1.00138 114.25 0.966584 114.49 1.00002C115.71 1.00002 116.93 1.00002 118.15 1.00002C118.4 1.00002 118.82 1.10002 118.85 1.22002C118.91 1.5174 118.861 1.82663 118.71 2.09002C117.8 3.47002 116.83 4.80002 115.92 6.17002C114.37 8.49002 112.85 10.83 111.3 13.17C109.6 15.72 107.89 18.24 106.19 20.78C104.49 23.32 102.91 25.71 101.29 28.19C101.141 28.4371 101.064 28.7214 101.07 29.01C101.07 34.85 101.07 40.6867 101.07 46.52C101.07 47.44 100.9 47.62 99.96 47.62H97.49C96.49 47.62 96.35 47.52 96.35 46.5C96.35 40.98 96.35 35.5 96.35 29.95C96.3659 28.9571 96.0608 27.9855 95.48 27.18C93.04 23.59 90.64 19.97 88.22 16.37C86.3 13.51 84.36 10.66 82.45 7.80002C81.32 6.00002 80.2 4.30002 79.06 2.58002C78.77 2.15002 78.15 1.72002 78.55 1.22002C78.77 0.940018 79.47 1.00002 80 1.00002C80.88 1.00002 81.77 1.00002 82.64 1.00002C82.9789 0.957759 83.3226 1.02042 83.6248 1.17956C83.927 1.3387 84.1731 1.58666 84.33 1.89002C85.13 3.16335 85.94 4.42668 86.76 5.68002C88.78 8.80002 90.85 12 92.9 15.14C94.75 18.01 96.59 20.9 98.43 23.78C98.5259 23.9157 98.6294 24.0459 98.74 24.17Z" fill="white"/>
<path d="M0 5.14011V1.00011H35.18C36.26 1.00011 36.77 0.880111 36.65 2.47011C36.61 3.0294 36.61 3.59082 36.65 4.15011C36.6841 4.2723 36.6882 4.40089 36.6621 4.52502C36.636 4.64914 36.5803 4.76516 36.4999 4.86324C36.4195 4.96133 36.3166 5.03861 36.2 5.08854C36.0834 5.13847 35.9565 5.15959 35.83 5.15011C35.5369 5.16522 35.2431 5.16522 34.95 5.15011C30.46 5.15011 25.95 5.15011 21.47 5.15011C20.85 5.15011 20.37 5.20011 20.6 6.03011C20.625 6.22263 20.625 6.41759 20.6 6.61011V46.3501C20.6 47.4501 20.36 47.6601 19.25 47.6201C18.43 47.6201 17.6 47.6201 16.77 47.6201C15.94 47.6201 15.77 47.4201 15.77 46.5701C15.77 46.1801 15.77 45.7801 15.77 45.3901V6.70011C15.77 5.18011 15.77 5.18011 14.23 5.18011H0.75C0.51 5.19011 0.27 5.16011 0 5.14011Z" fill="white"/>
<path d="M245.94 24.14V2.10001C245.94 0.970008 246.03 0.890008 247.14 0.900008C247.97 0.900008 248.8 0.900008 249.63 0.900008C250.46 0.900008 250.73 1.15001 250.76 1.97001C250.76 2.31001 250.76 2.65001 250.76 2.97001C250.76 14.2233 250.76 25.4733 250.76 36.72C250.76 39.92 250.76 43.12 250.82 46.31C250.82 47.31 250.63 47.47 249.67 47.46H247C246.11 47.46 246 47.33 246 46.46V24.14H245.94Z" fill="#C5C5C4"/>
<path d="M247.44 68.3101C247.5 68.2201 247.53 68.2001 247.53 68.1801C247.65 66.5001 248.04 66.7001 249.72 66.7801C250.17 66.7801 250.39 67.1301 250.38 67.6001C250.38 68.3801 250.38 69.1601 250.38 69.9401C250.38 73.6501 250.38 77.3601 250.23 81.0601C250.273 82.1216 250.076 83.1792 249.654 84.154C249.231 85.1288 248.594 85.9957 247.79 86.6901C247.34 87.0401 246.79 87.2201 246.31 87.5801C245.31 88.4101 244.09 88.0601 242.96 88.1201C242.23 88.1201 241.49 88.0501 240.77 88.1201C239.77 88.2501 239.01 87.5701 238.17 87.2301C237.67 87.0201 237.61 86.5801 237.8 86.0501C238.36 84.5101 238.28 84.6801 239.88 85.1901C241.177 85.5716 242.54 85.6772 243.88 85.5001C246.02 85.2401 247.08 83.8001 247.15 81.6401C247.15 81.2801 247.26 80.9201 247.27 80.5501C247.233 80.3777 247.169 80.2122 247.08 80.0601C246.921 80.096 246.771 80.164 246.64 80.2601C244.84 82.2601 241.13 82.2601 239.07 80.5501C236.53 78.4001 235.9 75.6101 236.49 72.4501C236.781 70.735 237.64 69.1675 238.93 68.0001C239.873 67.165 241.046 66.6357 242.296 66.4821C243.546 66.3285 244.813 66.558 245.93 67.1401C246.459 67.4955 246.964 67.8864 247.44 68.3101ZM247.13 74.1301C247.205 73.3051 247.205 72.4751 247.13 71.6501C246.923 70.911 246.488 70.2563 245.886 69.7802C245.284 69.3041 244.547 69.031 243.78 69.0001C243.024 68.94 242.268 69.1105 241.611 69.4889C240.954 69.8674 240.427 70.4361 240.1 71.1201C239.449 72.5211 239.243 74.0883 239.51 75.6101C239.596 76.6551 240.075 77.6285 240.851 78.3338C241.627 79.0391 242.642 79.4238 243.69 79.4101C244.57 79.3288 245.394 78.9442 246.022 78.3221C246.649 77.7 247.041 76.8792 247.13 76.0001V74.1301Z" fill="#C5C5C4"/>
<path d="M173.85 71.65C173.688 68.9719 174.582 66.337 176.34 64.31C178.001 62.3711 180.334 61.1316 182.87 60.84C184.565 60.6845 186.273 60.7552 187.95 61.05C188.073 61.0693 188.194 61.1029 188.31 61.15C188.599 61.1824 188.871 61.3006 189.091 61.4894C189.312 61.6782 189.471 61.9289 189.547 62.2091C189.624 62.4892 189.615 62.7859 189.521 63.0606C189.427 63.3354 189.252 63.5755 189.02 63.75C188.873 63.8436 188.707 63.9037 188.534 63.9262C188.362 63.9487 188.186 63.9329 188.02 63.88C186.69 63.4556 185.293 63.286 183.9 63.38C182.368 63.4829 180.904 64.0478 179.7 65C178.946 65.6065 178.328 66.3653 177.886 67.2269C177.445 68.0885 177.191 69.0334 177.14 70C177.021 71.3574 177.068 72.7241 177.28 74.07C177.435 75.1167 177.851 76.1074 178.491 76.95C179.131 77.7927 179.973 78.46 180.94 78.89C182.686 79.5951 184.596 79.7927 186.45 79.46C187.046 79.3613 187.632 79.2073 188.2 79C188.84 78.81 189.2 79 189.3 79.65C189.62 81.42 189.79 81.38 188.18 81.74C186.684 82.0627 185.16 82.2369 183.63 82.26C181.501 82.3175 179.416 81.6552 177.71 80.38C176.1 79.2571 174.941 77.5984 174.44 75.7C174.11 74.4 173.91 73.06 173.64 71.7L173.85 71.65Z" fill="#C5C5C4"/>
<path d="M301.81 82.1C299.808 82.3092 297.792 81.8485 296.08 80.7901C294.324 79.7639 292.975 78.1641 292.26 76.2601C291.336 73.8838 291.148 71.2846 291.72 68.8001C291.967 67.4325 292.509 66.1352 293.308 64.9987C294.108 63.8622 295.146 62.9139 296.35 62.2201C298.982 60.69 302.109 60.252 305.06 61.0001C305.586 61.0852 306.104 61.2123 306.61 61.3801C307.25 61.6401 307.37 62.1201 307.06 62.7501C306.44 64.0701 306.41 64.1401 305.06 63.7001C303.118 63.0823 301.023 63.1565 299.13 63.9101C297.668 64.4257 296.459 65.4812 295.75 66.8601C295.111 68.107 294.734 69.4713 294.641 70.8693C294.548 72.2673 294.742 73.6695 295.21 74.99C295.621 76.2992 296.441 77.442 297.55 78.2502C298.659 79.0584 299.998 79.4895 301.37 79.4801C302.63 79.4628 303.889 79.376 305.14 79.2201C305.209 79.2352 305.281 79.2352 305.35 79.2201C305.75 79.0001 306.24 78.54 306.58 79.02C306.92 79.572 307.129 80.1947 307.19 80.84C307.19 81.05 306.74 81.4801 306.44 81.5501C304.93 81.8901 303.44 82.14 301.88 82.42L301.81 82.1Z" fill="#C5C5C4"/>
<path d="M138.22 66.5701C139.874 66.4486 141.515 66.9415 142.829 67.9545C144.143 68.9674 145.037 70.4292 145.34 72.0601C146.03 75.4601 145.52 78.9401 142.07 81.1901C140.698 82.0375 139.085 82.4099 137.48 82.2501C136.331 82.1885 135.216 81.8335 134.243 81.2191C133.27 80.6047 132.47 79.7512 131.92 78.7401C131.055 77.1706 130.705 75.3691 130.92 73.5901C130.964 72.4974 131.252 71.4285 131.762 70.4613C132.273 69.4942 132.993 68.6533 133.87 68.0001C135.08 66.9785 136.64 66.4659 138.22 66.5701ZM134 74.5101C134.049 75.799 134.432 77.0531 135.11 78.1501C135.441 78.6925 135.908 79.1391 136.465 79.4457C137.021 79.7523 137.648 79.9082 138.284 79.8981C138.919 79.888 139.541 79.7122 140.087 79.3881C140.634 79.064 141.086 78.6028 141.4 78.0501C142.106 76.949 142.485 75.6703 142.494 74.3623C142.503 73.0544 142.141 71.7707 141.45 70.6601C141.158 70.2135 140.775 69.8334 140.327 69.5444C139.878 69.2555 139.374 69.0642 138.847 68.9831C138.32 68.902 137.781 68.9328 137.266 69.0736C136.752 69.2143 136.273 69.4619 135.86 69.8001C134.28 71.0901 134.09 72.8501 134 74.5101Z" fill="#C5C5C4"/>
<path d="M190.93 75C191.06 71.47 192.06 69 194.71 67.46C195.565 66.8929 196.564 66.5808 197.59 66.56C198.902 66.4395 200.224 66.6138 201.46 67.07C202.357 67.4766 203.159 68.0679 203.812 68.8055C204.465 69.543 204.955 70.4101 205.25 71.35C205.936 73.2911 205.936 75.4089 205.25 77.35C204.944 78.2895 204.444 79.1543 203.783 79.8881C203.121 80.622 202.313 81.2087 201.41 81.61C199.892 82.3051 198.186 82.4774 196.56 82.1C195.431 81.885 194.379 81.3734 193.513 80.6178C192.646 79.8621 191.996 78.8896 191.63 77.8C191.326 76.8858 191.092 75.9498 190.93 75ZM202.6 74.28C202.536 72.9416 202.126 71.6427 201.41 70.51C201.024 69.9766 200.506 69.5518 199.907 69.2768C199.309 69.0018 198.649 68.8859 197.993 68.9402C197.336 68.9945 196.705 69.2172 196.16 69.5867C195.614 69.9563 195.174 70.4603 194.88 71.05C194.374 72.0766 194.112 73.2057 194.112 74.35C194.112 75.4943 194.374 76.6234 194.88 77.65C195.115 78.187 195.475 78.66 195.929 79.0294C196.384 79.3989 196.921 79.654 197.495 79.7734C198.069 79.8929 198.663 79.8732 199.227 79.716C199.792 79.5588 200.311 79.2687 200.74 78.87C202.12 77.66 202.44 76 202.6 74.28Z" fill="#C5C5C4"/>
<path d="M317.85 80.43C317.094 80.9349 316.306 81.3892 315.49 81.79C313.36 82.64 310.36 82.2 309.24 79.79C308.945 79.1969 308.775 78.5495 308.741 77.8881C308.707 77.2266 308.808 76.5651 309.04 75.9446C309.271 75.324 309.628 74.7576 310.087 74.2803C310.546 73.8031 311.099 73.4252 311.71 73.17C313.114 72.5613 314.613 72.1994 316.14 72.1C316.58 72.1 317.35 71.91 317.36 71.76C317.416 71.1906 317.316 70.6166 317.07 70.1C316.37 68.77 314.72 68.58 313.33 68.87C312.579 69.0631 311.841 69.3036 311.12 69.59C310.59 69.78 310.26 69.68 310.12 69.07C309.75 67.8 309.94 67.54 311.2 67.07C312.928 66.463 314.779 66.2879 316.59 66.56C317.388 66.7678 318.126 67.1602 318.744 67.7056C319.363 68.2511 319.844 68.9342 320.15 69.7C320.526 70.999 320.698 72.3484 320.66 73.7C320.66 76.09 320.66 78.48 320.72 80.87C320.72 81.76 320.54 81.94 319.65 81.87H319.21C318.21 81.87 318.02 81.73 317.94 80.73C317.9 80.67 317.87 80.55 317.85 80.43ZM317.48 75.94C317.514 75.5508 317.514 75.1593 317.48 74.77C317.48 74.6 317.17 74.33 317.02 74.34C315.48 74.48 313.91 74.54 312.61 75.56C312.263 75.9149 312.018 76.3564 311.9 76.8384C311.782 77.3204 311.796 77.8252 311.94 78.3C312.081 78.7354 312.357 79.1149 312.727 79.3843C313.097 79.6537 313.542 79.7992 314 79.8C314.499 79.8309 314.998 79.7489 315.46 79.5601C315.923 79.3713 316.337 79.0805 316.671 78.7095C317.006 78.3385 317.252 77.8967 317.392 77.4172C317.532 76.9377 317.562 76.4328 317.48 75.94Z" fill="#C5C5C4"/>
<path d="M259.48 75H257C256.26 75 256.1 75.2 256.26 76C256.73 78.27 257.95 79.51 260.26 79.65C261.638 79.6534 263.012 79.5126 264.36 79.23C264.79 79.17 265.07 79.17 265.24 79.59C265.385 79.9137 265.506 80.248 265.6 80.59C265.633 80.6931 265.645 80.8019 265.633 80.9096C265.622 81.0173 265.589 81.1215 265.535 81.2155C265.482 81.3096 265.409 81.3915 265.322 81.456C265.235 81.5204 265.136 81.5661 265.03 81.59C263.148 82.2958 261.115 82.4992 259.13 82.18C257.908 82.0481 256.751 81.5653 255.798 80.7897C254.845 80.0142 254.137 78.9793 253.76 77.81C253.256 76.499 253.063 75.0891 253.194 73.6908C253.326 72.2925 253.78 70.9437 254.52 69.75C255.179 68.6127 256.167 67.7018 257.354 67.1377C258.542 66.5735 259.872 66.3826 261.17 66.59C264.17 66.85 266.17 69.66 266.37 72.36C266.37 72.94 266.5 73.52 266.49 74.11C266.49 74.97 266.16 75.18 265.29 75.17C263.37 75.17 261.44 75.17 259.51 75.17L259.48 75ZM259.93 72.69C260.93 72.69 261.98 72.69 263 72.69C263.18 72.69 263.53 72.33 263.5 72.23C263.35 71.4707 263.076 70.741 262.69 70.07C262.35 69.6353 261.908 69.2903 261.404 69.0651C260.9 68.8399 260.348 68.7412 259.797 68.7776C259.246 68.8141 258.713 68.9846 258.242 69.2743C257.772 69.564 257.38 69.9642 257.1 70.44C256.854 70.905 256.641 71.3861 256.46 71.88C256.18 72.58 256.24 72.69 257 72.71C258 72.67 259 72.65 259.93 72.65V72.69Z" fill="#C5C5C4"/>
<path d="M346.25 75.0001H336.88C336.09 75.0001 335.93 75.1701 336.12 75.8901C336.47 77.2301 336.97 78.5601 338.38 79.0801C339.383 79.4314 340.438 79.6106 341.5 79.6101C342.46 79.5268 343.411 79.356 344.34 79.1001C344.432 79.0812 344.528 79.0812 344.62 79.1001C345.35 79.3001 345.29 80.0101 345.41 80.5201C345.431 80.6976 345.404 80.8775 345.332 81.041C345.26 81.2046 345.145 81.3458 345 81.4501C343.1 82.2228 341.024 82.458 339 82.1301C337.797 81.9745 336.661 81.4871 335.72 80.7223C334.778 79.9575 334.069 78.9456 333.67 77.8001C332.54 74.8901 333.13 70.5801 335.46 68.3501C336.242 67.5917 337.197 67.0351 338.242 66.7284C339.288 66.4218 340.392 66.3743 341.46 66.5901C343.64 66.9001 344.89 68.3301 345.82 70.2501C346.53 71.7201 345.91 73.2901 346.25 75.0001ZM339.7 72.6501C340.75 72.6501 341.8 72.6501 342.85 72.6501C343.05 72.6501 343.44 72.3901 343.42 72.3201C343.17 71.3201 343.02 70.1301 342.11 69.4801C341.767 69.1822 341.366 68.9587 340.933 68.8237C340.499 68.6888 340.043 68.6453 339.591 68.6961C339.14 68.7468 338.704 68.8907 338.312 69.1186C337.919 69.3465 337.578 69.6535 337.31 70.0201C336.893 70.6092 336.556 71.2516 336.31 71.9301C335.99 72.5701 336.05 72.6601 336.78 72.6701C337.75 72.6201 338.72 72.6101 339.7 72.6101V72.6501Z" fill="#C5C5C4"/>
<path d="M230.71 80.4101C230.514 80.4886 230.329 80.5928 230.16 80.7201C229.685 81.2105 229.114 81.5971 228.482 81.8553C227.851 82.1135 227.172 82.2377 226.49 82.2201C225.453 82.3163 224.414 82.0472 223.554 81.4593C222.694 80.8714 222.067 80.0016 221.78 79.0001C221.544 78.0899 221.582 77.1304 221.888 76.2413C222.193 75.3522 222.754 74.5727 223.5 74.0001C225.211 72.8276 227.236 72.197 229.31 72.1901C230.5 72.1001 230.6 72.0301 230.25 70.9101C230.04 70.2115 229.575 69.6176 228.946 69.2469C228.318 68.8763 227.573 68.756 226.86 68.9101C225.909 69.1491 224.974 69.4464 224.06 69.8001C223.93 69.8001 223.69 69.9101 223.65 69.8601C223.309 69.4711 223.023 69.037 222.8 68.5701C222.785 68.414 222.808 68.2567 222.865 68.1108C222.922 67.9649 223.013 67.8345 223.13 67.7301C223.832 67.3069 224.594 66.9933 225.39 66.8001C227.089 66.3421 228.891 66.4403 230.53 67.0801C231.348 67.4402 232.046 68.0253 232.543 68.7672C233.041 69.509 233.317 70.3771 233.34 71.2701C233.51 74.0201 233.46 76.7801 233.52 79.5301C233.52 80.0601 233.6 80.5901 233.66 81.1201C233.686 81.2286 233.687 81.3417 233.663 81.4506C233.638 81.5594 233.588 81.661 233.517 81.7474C233.446 81.8337 233.356 81.9024 233.255 81.948C233.153 81.9936 233.042 82.0148 232.93 82.0101C232.517 82.0451 232.103 82.0451 231.69 82.0101C230.84 81.8801 230.82 81.1601 230.71 80.4101ZM230.57 75.9401C230.567 75.5547 230.533 75.1702 230.47 74.7901C230.47 74.6201 230.15 74.3801 230 74.4001C228.519 74.3779 227.056 74.7214 225.74 75.4001C225.44 75.6332 225.193 75.9285 225.017 76.2658C224.841 76.6031 224.74 76.9743 224.721 77.3542C224.703 77.734 224.766 78.1135 224.907 78.4666C225.048 78.8197 225.264 79.1382 225.54 79.4001C226.74 80.3401 228.05 79.9701 229.28 79.0801C229.756 78.7198 230.127 78.2385 230.354 77.6862C230.581 77.134 230.655 76.531 230.57 75.9401Z" fill="#C5C5C4"/>
<path d="M87.22 69C87.2731 68.7871 87.361 68.5844 87.48 68.4C88.1097 67.6267 88.9508 67.0533 89.9008 66.7496C90.8507 66.446 91.8685 66.4253 92.83 66.69C93.8004 66.8679 94.6917 67.3424 95.3812 68.048C96.0707 68.7537 96.5245 69.6557 96.68 70.63C96.9065 71.845 97.0435 73.0749 97.09 74.31C97.15 76.51 97.09 78.71 97.09 80.9C97.09 81.82 96.89 82.01 95.99 82.05C93.89 82.12 93.89 82.12 93.89 80.05C93.89 77.49 93.89 74.92 93.89 72.36C93.9058 71.7267 93.7351 71.1028 93.399 70.5658C93.063 70.0289 92.5764 69.6026 92 69.34C91.3182 69.1192 90.5855 69.1099 89.8983 69.3134C89.2112 69.5169 88.6017 69.9236 88.15 70.48C87.5779 71.1838 87.2859 72.0741 87.33 72.98C87.33 75.57 87.33 78.15 87.33 80.74C87.33 81.84 87.14 82.03 86.06 82.02C84.18 82.02 84.19 82.02 84.18 80.14C84.18 76.08 84.1567 72.0267 84.11 67.98C84.11 67.06 84.28 66.86 85.2 66.86H85.35C86.86 66.86 86.86 66.86 86.89 68.35C86.8798 68.4664 86.8798 68.5835 86.89 68.7L87.22 69Z" fill="#C5C5C4"/>
<path d="M272.16 68.6201C272.52 68.3101 272.76 68.1201 272.98 67.9101C275.59 65.4201 280.6 66.0601 281.74 70.0401C282.003 70.9442 282.147 71.8787 282.17 72.8201C282.23 75.4301 282.17 78.0401 282.17 80.6501C282.17 81.8101 282.05 81.9301 280.87 81.9101H280.43C279.43 81.9101 279.14 81.7001 279.14 80.7101C279.14 78.5901 279.14 76.4701 279.14 74.3401C279.156 73.2922 279.055 72.2458 278.84 71.2201C278.42 69.5401 277.29 68.8901 275.44 69.1101C274.601 69.2269 273.833 69.6458 273.281 70.2883C272.728 70.9309 272.429 71.7528 272.44 72.6001C272.44 75.2101 272.44 77.8201 272.44 80.4301C272.44 80.9501 272.58 81.6901 271.93 81.8101C271.149 81.9146 270.356 81.874 269.59 81.6901C269.44 81.6901 269.32 81.0101 269.32 80.6901C269.32 78.1801 269.32 75.6901 269.32 73.1501C269.32 71.4201 269.24 69.6901 269.2 67.9601C269.2 66.9101 269.33 66.7601 270.36 66.7401H271.02C271.15 66.7219 271.281 66.7329 271.406 66.7722C271.531 66.8115 271.645 66.8781 271.741 66.9672C271.837 67.0563 271.912 67.1656 271.96 67.2872C272.008 67.4087 272.029 67.5395 272.02 67.6701C272.07 67.9101 272.11 68.1801 272.16 68.6201Z" fill="#C5C5C4"/>
<path d="M77.35 80.0901C77.1826 80.1991 77.0253 80.3229 76.88 80.4601C76.2555 81.179 75.4523 81.7203 74.5515 82.0294C73.6507 82.3384 72.6844 82.4042 71.75 82.2201C70.6424 82.0265 69.6324 81.4653 68.883 80.627C68.1336 79.7888 67.6887 78.7224 67.62 77.6001C67.62 76.9501 67.5 76.2901 67.49 75.6001C67.49 73.1101 67.43 70.6001 67.39 68.1301C67.39 67.0201 67.56 66.8201 68.7 66.8201C70.45 66.8201 70.45 66.8201 70.45 68.6001C70.45 70.6001 70.39 72.7001 70.45 74.7501C70.5258 75.8095 70.7101 76.8583 71 77.8801C71.2114 78.5347 71.6718 79.0799 72.2818 79.3979C72.8917 79.716 73.6023 79.7814 74.26 79.5801C75.0884 79.4402 75.8344 78.9951 76.3509 78.3324C76.8673 77.6697 77.1168 76.8376 77.05 76.0001C77.05 73.3801 77.05 70.7701 77.05 68.1601C77.05 67.0401 77.24 66.8301 78.35 66.8201C80.17 66.8201 80.13 66.6501 80.12 68.6201C80.12 72.0401 80.12 75.4501 80.12 78.8701C80.12 79.5801 80.21 80.2801 80.23 80.9901C80.25 81.7001 79.99 81.9901 79.23 81.9901L79 82.0001C77.77 82.0701 77.29 81.9201 77.47 80.4901C77.4457 80.3525 77.4054 80.2183 77.35 80.0901Z" fill="#C5C5C4"/>
<path d="M151.33 68.63C151.73 68.31 151.99 68.11 152.24 67.89C154.89 65.52 159.64 66.18 160.85 69.97C161.128 70.8442 161.283 71.753 161.31 72.67C161.37 75.35 161.31 78.04 161.31 80.67C161.31 81.86 161.21 81.95 160.01 81.94H159.42C158.51 81.94 158.3 81.73 158.3 80.82C158.3 78.51 158.3 76.19 158.3 73.82C158.306 72.8931 158.195 71.9691 157.97 71.07C157.901 70.7322 157.766 70.4116 157.571 70.1271C157.377 69.8426 157.127 69.6 156.837 69.4136C156.547 69.2271 156.223 69.1007 155.883 69.0417C155.544 68.9827 155.196 68.9923 154.86 69.07C153.95 69.1268 153.099 69.5373 152.487 70.2138C151.876 70.8903 151.554 71.7791 151.59 72.69C151.59 75.32 151.59 77.96 151.59 80.6C151.59 81.76 151.46 81.89 150.29 81.88C148.5 81.88 148.5 81.88 148.5 80.11C148.5 76.69 148.5 73.27 148.5 69.85C148.5 69.15 148.4 68.44 148.37 67.74C148.34 67.04 148.58 66.74 149.3 66.74C149.57 66.74 149.84 66.74 150.1 66.74C150.89 66.74 151.1 66.94 151.18 67.74C151.2 68 151.26 68.25 151.33 68.63Z" fill="#C5C5C4"/>
<path d="M13.47 72.8401C13.47 70.0101 13.47 67.1801 13.47 64.3501C13.47 63.8401 13.19 63.8101 12.82 63.8101H8.44C7.37 63.8101 7.25 63.6801 7.26 62.6501V62.4301C7.26 61.2201 7.4 61.0901 8.6 61.0901H20.74C21.08 61.0901 21.42 61.0901 21.74 61.0301C22.41 60.9701 22.74 61.1901 22.74 61.8501C22.74 63.6501 22.98 63.8501 21.03 63.7801C19.73 63.7801 18.44 63.7801 17.15 63.7801C16.64 63.7801 16.42 63.9401 16.53 64.4801C16.5818 64.7906 16.5985 65.1059 16.58 65.4201C16.58 70.5201 16.58 75.6201 16.58 80.7201C16.58 81.8801 16.43 82.0401 15.29 82.0601H14.78C13.62 82.0601 13.4 81.8601 13.4 80.7201V72.8201L13.47 72.8401Z" fill="#C5C5C4"/>
<path d="M62 75.6001V81.0001C62 81.8601 61.77 82.0001 60.89 82.0001H60.45C59 82.0601 59 82.0601 59 80.6601C59 77.1401 59 73.6601 59 70.1101C59 69.4801 58.78 69.3101 58.2 69.3001C56.91 69.3001 56.79 69.1401 56.85 67.9301C56.85 67.1001 57.12 66.8801 57.99 66.8601C58.86 66.8401 58.99 66.8601 58.99 65.8601C58.9234 64.8864 59.0954 63.9112 59.4909 63.019C59.8865 62.1268 60.4937 61.3446 61.26 60.7401C62.3639 59.9176 63.7454 59.5588 65.11 59.7401C65.36 59.7401 65.6 59.8101 65.84 59.8301C66.48 59.8901 66.84 60.2101 66.77 60.8801C66.77 61.1701 66.66 61.4601 66.65 61.7501C66.65 62.4301 66.25 62.5201 65.65 62.4701C65.0162 62.3849 64.3738 62.3849 63.74 62.4701C63.3327 62.5682 62.9763 62.8141 62.74 63.1601C62.134 64.1475 61.8736 65.3085 62 66.4601C62 66.6101 62.35 66.8301 62.54 66.8501C63.2062 66.8835 63.8737 66.8835 64.54 66.8501C65.15 66.8501 65.43 67.0601 65.45 67.6901C65.45 69.3301 65.45 69.3301 63.88 69.3301H62.6C62.11 69.3301 61.93 69.5201 61.94 70.0401C61.94 71.8901 61.94 73.7501 61.94 75.6001H62Z" fill="#C5C5C4"/>
<path d="M107.36 82.28C106.012 82.356 104.671 82.0406 103.498 81.3717C102.325 80.7028 101.371 79.709 100.75 78.51C100.14 77.3107 99.8469 75.9748 99.9 74.63C99.8362 73.517 100.016 72.4034 100.427 71.3671C100.838 70.3308 101.471 69.3967 102.28 68.63C103.646 67.2791 105.489 66.521 107.41 66.52C108.677 66.4358 109.947 66.6163 111.14 67.05C111.75 67.31 111.92 67.6401 111.63 68.2301C111.57 68.3601 111.53 68.5 111.48 68.64C111.08 69.71 111.11 69.64 110.03 69.34C107.62 68.76 105.14 68.82 103.74 71.4C103.298 72.2158 103.052 73.1229 103.02 74.05C102.96 76.05 103.37 77.87 105.24 78.97C105.856 79.3395 106.541 79.5789 107.253 79.6735C107.965 79.7681 108.689 79.7159 109.38 79.52L109.66 79.43C111.22 79.07 111.02 78.73 111.66 80.43C111.87 80.99 111.73 81.43 111.2 81.52C109.94 81.86 108.66 82.13 107.4 82.42L107.36 82.28Z" fill="#C5C5C4"/>
<path d="M118.58 73.7701C118.58 75.2101 118.52 76.6501 118.58 78.0801C118.582 78.3136 118.635 78.5439 118.735 78.7547C118.836 78.9656 118.981 79.1519 119.161 79.3005C119.342 79.4492 119.552 79.5566 119.778 79.6153C120.004 79.674 120.24 79.6824 120.47 79.6401H120.61C121.97 79.5701 122.37 79.9901 122.12 81.3401C122.087 81.4867 122.021 81.624 121.928 81.7417C121.834 81.8595 121.715 81.9546 121.58 82.0201C120.867 82.2621 120.113 82.3551 119.363 82.2931C118.613 82.2312 117.883 82.0157 117.22 81.6601C116.694 81.3019 116.265 80.8179 115.974 80.2521C115.682 79.6863 115.536 79.0565 115.55 78.4201C115.4 76.4801 115.42 74.5301 115.4 72.5801C115.4 71.6801 115.47 70.7801 115.47 69.8801C115.451 69.7725 115.41 69.67 115.35 69.5788C115.29 69.4877 115.211 69.4098 115.12 69.3501C114.945 69.2701 114.75 69.2423 114.56 69.2701C113.04 69.3601 113.12 69.1201 113.2 67.5401C113.2 67.0201 113.66 66.9001 114.1 66.8801C115.42 66.8001 115.39 66.8001 115.41 65.4501C115.41 65.0301 115.54 64.3801 115.81 64.2401C116.56 63.9238 117.346 63.6988 118.15 63.5701C118.22 63.5701 118.48 64.0101 118.5 64.2501C118.5 64.8601 118.5 65.4701 118.5 66.0801C118.5 66.6901 118.72 66.9401 119.34 66.8901C119.96 66.8401 120.71 66.8901 121.34 66.8101C121.79 66.8101 122.12 66.9501 122.18 67.4201C122.26 67.8497 122.26 68.2904 122.18 68.7201C122.109 68.8552 122.008 68.9722 121.885 69.0624C121.762 69.1525 121.62 69.2133 121.47 69.2401C120.717 69.2851 119.963 69.2851 119.21 69.2401C118.64 69.2401 118.37 69.3801 118.41 70.0401C118.47 71.2801 118.41 72.5201 118.41 73.7701H118.58Z" fill="#C5C5C4"/>
<path d="M211.7 71V80.81C211.7 81.81 211.46 82 210.48 82C208.62 82 208.63 82 208.63 80.15C208.63 73.8767 208.63 67.61 208.63 61.35C208.584 61.0119 208.625 60.6676 208.75 60.35C208.85 60.2171 208.978 60.1078 209.125 60.03C209.272 59.9523 209.434 59.9079 209.6 59.9C210.31 59.9 211.17 59.54 211.65 60.41C211.701 60.6236 211.701 60.8464 211.65 61.06C211.65 64.37 211.65 67.69 211.65 71H211.7Z" fill="#C5C5C4"/>
<path d="M218.75 71C218.75 74.24 218.75 77.49 218.75 80.73C218.75 81.92 218.64 82.03 217.47 82.02H217C215.91 82.02 215.71 81.85 215.71 80.78C215.71 75.69 215.71 70.59 215.71 65.49C215.71 64.06 215.62 62.62 215.61 61.18C215.61 60.12 215.85 59.91 216.9 59.9C218.81 59.9 218.69 59.9 218.68 61.71V71H218.75Z" fill="#C5C5C4"/>
<path d="M26.06 68.92C26.4463 68.4586 26.8569 68.018 27.29 67.6C27.6499 67.2577 28.0759 66.9925 28.5419 66.8205C29.0078 66.6486 29.504 66.5736 30 66.6C30.116 66.5895 30.233 66.6044 30.3426 66.6437C30.4523 66.6831 30.552 66.7459 30.6349 66.8278C30.7178 66.9097 30.7817 67.0087 30.8223 67.1179C30.8629 67.2271 30.8792 67.3439 30.87 67.46C30.87 67.73 30.87 67.99 30.87 68.26C30.87 69.45 30.78 69.54 29.59 69.57C28.7014 69.6591 27.8774 70.0743 27.2771 70.7356C26.6768 71.3968 26.343 72.257 26.34 73.15C26.34 75.76 26.34 78.38 26.34 80.99C26.34 81.9 26.19 82.05 25.28 82.1C23.21 82.23 23.13 82.1 23.13 80.1C23.13 76.1 23.1133 72.1 23.08 68.1C23.08 67.1 23.26 66.95 24.23 66.95H24.67C25.67 66.95 25.96 67.28 25.87 68.29C25.87 68.51 25.87 68.74 25.87 68.96L26.06 68.92Z" fill="#C5C5C4"/>
<path d="M327.27 68.7501C327.62 68.3501 327.87 68.0701 328.13 67.7501C328.496 67.313 328.955 66.9644 329.475 66.7306C329.995 66.4968 330.56 66.3838 331.13 66.4001C331.87 66.4001 332.13 66.7001 332.13 67.4001C332.13 67.4001 332.13 67.5001 332.13 67.5501C332.13 69.1501 332.13 69.1101 330.49 69.3201C329.954 69.3752 329.444 69.5771 329.015 69.9035C328.586 70.2298 328.256 70.6681 328.06 71.1701C327.716 72.0489 327.517 72.9776 327.47 73.9201C327.4 76.1401 327.47 78.3701 327.47 80.5901C327.47 81.7201 327.29 81.9001 326.16 81.8501C324.46 81.7701 324.46 81.7701 324.47 80.0801C324.47 76.5701 324.47 73.0801 324.47 69.5301C324.47 68.8801 324.39 68.2201 324.34 67.5301C324.29 66.8401 324.61 66.6301 325.21 66.6101C325.36 66.6101 325.5 66.6101 325.65 66.6101C327 66.6101 327.04 66.6101 327.14 67.9601C327.164 68.2262 327.208 68.4903 327.27 68.7501Z" fill="#C5C5C4"/>
<path d="M36.29 74.48C36.29 76.65 36.29 78.83 36.29 81C36.29 81.87 36.01 82.12 35.13 82.07C33.2 82 33.21 82 33.21 80C33.21 76 33.21 72.09 33.21 68.13C33.21 67.07 33.42 66.87 34.51 66.88C36.24 66.88 36.24 66.88 36.23 68.61V74.47L36.29 74.48Z" fill="#C5C5C4"/>
<path d="M127.89 74.5C127.89 76.67 127.89 78.84 127.89 81.02C127.89 81.88 127.67 82.02 126.78 82.02C124.91 81.91 124.91 81.91 124.91 80.02V68C124.91 66.93 125.09 66.76 126.13 66.84C127.89 66.96 127.89 66.96 127.89 68.71V74.5Z" fill="#C5C5C4"/>
<path d="M47.3 76.15C46.01 76.15 44.72 76.15 43.42 76.15C42.85 76.15 42.55 75.96 42.57 75.35C42.59 74.74 42.57 74.35 42.57 73.89C42.57 73.43 42.86 73.11 43.38 73.11L50.91 73.05C51.91 73.05 52.05 73.24 52.02 74.22C52.02 74.29 52.02 74.36 52.02 74.44C52.02 76.13 52.02 76.13 50.25 76.13H47.3V76.15Z" fill="#C5C5C4"/>
<path d="M34.65 64.5601C34.3997 64.559 34.1522 64.5074 33.9223 64.4083C33.6925 64.3093 33.4849 64.1649 33.3122 63.9838C33.1395 63.8026 33.0051 63.5885 32.9171 63.3542C32.829 63.1198 32.7892 62.8702 32.8 62.6201C32.8419 62.1149 33.0695 61.6432 33.4389 61.296C33.8083 60.9488 34.2932 60.7507 34.8 60.7401C35.3046 60.7933 35.7741 61.0233 36.1254 61.3893C36.4768 61.7553 36.6874 62.2338 36.72 62.7401C36.6742 63.2511 36.4338 63.7249 36.0486 64.0636C35.6633 64.4024 35.1626 64.5801 34.65 64.5601Z" fill="#C5C5C4"/>
<path d="M124.48 62.6501C124.492 62.1485 124.691 61.6696 125.04 61.3084C125.388 60.9472 125.859 60.73 126.36 60.7001C126.886 60.7152 127.386 60.9307 127.758 61.3026C128.129 61.6744 128.345 62.1744 128.36 62.7001C128.328 63.1991 128.109 63.668 127.748 64.0141C127.388 64.3603 126.91 64.5586 126.41 64.5701C126.156 64.5755 125.903 64.5296 125.667 64.4351C125.431 64.3407 125.217 64.1996 125.037 64.0204C124.857 63.8412 124.714 63.6274 124.619 63.392C124.523 63.1565 124.476 62.9042 124.48 62.6501Z" fill="#C5C5C4"/>
</g>
<defs>
<clipPath id="clip0_2_64">
<rect width="346.25" height="88.16" fill="white"/>
</clipPath>
</defs>
</svg>
