<svg width="510" height="510" viewBox="0 0 510 510" fill="none" xmlns="http://www.w3.org/2000/svg">
<g clip-path="url(#clip0_2_56)">
<path style="mix-blend-mode:overlay" d="M435.19 74.67C335.63 -24.89 174.19 -24.89 74.67 74.67C-24.85 174.23 -24.89 335.67 74.67 435.19C174.23 534.71 335.67 534.75 435.19 435.19C534.71 335.63 534.74 174.22 435.19 74.67ZM81.44 428.42C-14.37 332.61 -14.37 177.28 81.44 81.42C159.93 3 278.37 -11.16 371.3 39C393.089 50.4156 413.013 65.0801 430.39 82.49C525.39 177.49 525.26 331.57 430.15 426.69C429.85 426.98 429.54 427.25 429.24 427.55C428.94 427.85 428.68 428.15 428.39 428.45C332.58 524.23 177.24 524.23 81.44 428.42Z" fill="url(#paint0_linear_2_56)"/>
<path style="mix-blend-mode:hard-light" d="M503.22 249.08C500 112 386.21 3.4101 249.08 6.6301C111.95 9.8501 3.41001 123.64 6.63001 260.77C9.85001 397.9 123.63 506.45 260.77 503.22C397.91 499.99 506.45 386.21 503.22 249.08ZM16 260.55C12.85 128.59 117.31 19.0901 249.28 16.0001C357.4 13.4401 450.4 83.1201 482.2 181C489.876 203.703 494.057 227.441 494.6 251.4C497.68 382.18 394 490.73 263 493.82H261.78C261.38 493.82 260.98 493.87 260.57 493.87C128.56 497 19.06 392.52 16 260.55Z" fill="url(#paint1_linear_2_56)"/>
</g>
<defs>
<linearGradient id="paint0_linear_2_56" x1="435.893" y1="73.9697" x2="68.0485" y2="441.814" gradientUnits="userSpaceOnUse">
<stop stop-color="white"/>
<stop offset="0.11" stop-color="#EBEBEB"/>
<stop offset="0.13" stop-color="#DFDFDF"/>
<stop offset="0.26" stop-color="#A6A6A6"/>
<stop offset="0.35" stop-color="#838383"/>
<stop offset="0.4" stop-color="#767676"/>
<stop offset="0.45" stop-color="#7D7D7D"/>
<stop offset="0.53" stop-color="#8F8F8F"/>
<stop offset="0.62" stop-color="#ADADAD"/>
<stop offset="0.71" stop-color="#D7D7D7"/>
<stop offset="0.75" stop-color="#EBEBEB"/>
<stop offset="1" stop-color="white"/>
</linearGradient>
<linearGradient id="paint1_linear_2_56" x1="504.168" y1="248.992" x2="-2.50166" y2="260.933" gradientUnits="userSpaceOnUse">
<stop stop-color="white"/>
<stop offset="0.11" stop-color="#EBEBEB"/>
<stop offset="0.13" stop-color="#DFDFDF"/>
<stop offset="0.26" stop-color="#A6A6A6"/>
<stop offset="0.35" stop-color="#838383"/>
<stop offset="0.4" stop-color="#767676"/>
<stop offset="0.45" stop-color="#7D7D7D"/>
<stop offset="0.53" stop-color="#8F8F8F"/>
<stop offset="0.62" stop-color="#ADADAD"/>
<stop offset="0.71" stop-color="#D7D7D7"/>
<stop offset="0.75" stop-color="#EBEBEB"/>
<stop offset="1" stop-color="white"/>
</linearGradient>
<clipPath id="clip0_2_56">
<rect width="509.86" height="509.86" fill="white"/>
</clipPath>
</defs>
</svg>
